<svg xmlns="http://www.w3.org/2000/svg" xml:space="preserve" width="449.459" height="449.602"
    viewBox="0 0 452.475 452.62">
    <defs>
        <linearGradient id="a" x1="-507.047" x2="-54.499" y1="-130.127" y2="322.421" gradientTransform="scale(.99984 1.00016)" gradientUnits="userSpaceOnUse"><stop offset="0%" style="stop-color:#9c20aa;stop-opacity:1"/><stop offset="100%" style="stop-color:#fb3570;stop-opacity:1"/></linearGradient></defs>
    <path
        stroke="url(#a)"
        d="M-278.698-127.596c-8.185-.417-16.278 1.695-25.031 6.294-7.66 4.026-14.77 9.706-30.317 24.227-13.05 12.188-18.175 15.712-24.998 17.182-2.85.614-14.856 1.512-26.681 1.996-31 1.267-41.393 4.407-53.004 16.02-11.712 11.711-14.71 21.836-15.996 54.003-.602 15.05-1.412 24.19-2.444 27.6-1.91 6.308-5.768 11.458-20.521 27.4-13.662 14.763-17.95 20.456-22.117 29.363-6.59 14.082-6.297 26.5.968 41.116 4.352 8.754 9.643 15.528 24.545 31.425 11.66 12.439 16.104 18.9 17.576 25.56.604 2.728 1.49 14.653 1.971 26.5 1.262 31.036 4.399 41.423 16.018 53.042 11.711 11.712 21.836 14.71 54.004 15.996 15.288.611 24.17 1.404 27.709 2.475 6.335 1.917 11.217 5.563 26.79 19.996 18.383 17.036 27.015 22.822 38.766 25.986 10.851 2.922 21.687 1.302 33.77-5.047 7.628-4.008 14.908-9.819 29.867-23.842 12.439-11.66 18.902-16.104 25.56-17.576 2.73-.603 14.655-1.49 26.5-1.972 31.038-1.262 41.422-4.397 53.041-16.016 11.712-11.712 14.713-21.838 15.999-54.006.596-14.91 1.413-24.197 2.423-27.535 1.883-6.219 6.151-11.987 19.295-26.08 13.65-14.635 18.884-21.478 22.996-30.065 6.971-14.554 6.793-26.919-.603-41.796-4.352-8.755-9.64-15.529-24.543-31.426-11.634-12.411-16.106-18.9-17.565-25.5-.596-2.697-1.49-14.622-1.988-26.5-1.307-31.187-4.42-41.508-16.014-53.102-11.711-11.712-21.836-14.71-54.003-15.996-15.29-.611-24.103-1.398-27.5-2.457-6.369-1.984-12.957-6.967-29.807-22.543-7.437-6.875-16.022-14.008-19.078-15.853-9.126-5.51-17.404-8.453-25.588-8.87zm-2.027 31.722c5.19 0 12.76 5.15 27.78 18.899 17.766 16.26 22.647 20.003 31.442 24.119 9.533 4.46 18.154 5.869 42.444 6.927 12.008.524 23.8 1.493 26.203 2.155 5.339 1.471 10.246 6.179 11.945 11.457.698 2.169 1.718 13.618 2.264 25.443s1.633 25.028 2.418 29.338c2.79 15.33 8.029 23.5 31.2 48.656 11.13 12.082 16.304 20.017 16.304 25.006 0 5.19-5.15 12.763-18.897 27.783-16.26 17.765-20.003 22.644-24.12 31.44-4.477 9.568-5.941 18.534-6.958 42.607-.503 11.919-1.458 23.637-2.121 26.04-1.475 5.34-6.185 10.248-11.461 11.947-2.17.698-13.618 1.715-25.443 2.261s-25.026 1.636-29.336 2.42c-15.33 2.79-23.5 8.03-48.657 31.201-6.686 6.16-14.462 12.347-17.279 13.75s-6.294 2.551-7.728 2.551c-5.19 0-12.761-5.149-27.782-18.896-17.765-16.26-22.644-20.004-31.44-24.12-9.532-4.46-18.155-5.868-42.444-6.927-12.01-.524-23.799-1.492-26.202-2.154-5.339-1.472-10.248-6.18-11.947-11.458-.698-2.169-1.717-13.62-2.264-25.445s-1.633-25.026-2.418-29.336c-2.789-15.329-8.029-23.5-31.2-48.656-11.13-12.082-16.303-20.019-16.303-25.008 0-5.174 5.134-12.72 18.802-27.642 16.17-17.652 20.092-22.767 24.215-31.579 4.461-9.533 5.867-18.155 6.926-42.445.523-12.008 1.494-23.798 2.156-26.201 1.472-5.339 6.18-10.248 11.457-11.947 2.17-.699 13.619-1.716 25.444-2.262s25.026-1.636 29.336-2.42c15.329-2.79 23.502-8.03 48.658-31.201 12.081-11.129 20.016-16.303 25.006-16.303zm-.247 82.194a16.46 16.46 0 0 0-16.496 16.496v109.76a16.46 16.46 0 0 0 16.496 16.494h.633a16.46 16.46 0 0 0 16.496-16.495V2.815a16.46 16.46 0 0 0-16.496-16.495zm.317 172.794a23.97 23.97 0 0 0-23.969 23.97 23.97 23.97 0 0 0 23.969 23.968 23.97 23.97 0 0 0 23.969-23.969 23.97 23.97 0 0 0-23.97-23.969z"
        transform="translate(506.966 130.147)"
        style="fill:transparent;stroke:url(#a);stroke-width:5;stroke-dasharray:none;stroke-opacity:1" />
</svg>