<?xml version="1.0" encoding="UTF-8" standalone="no"?>
<svg
    version="1.1"
    width="447"
    height="447"
    viewBox="0 0 450 450"
    xml:space="preserve"
    xmlns="http://www.w3.org/2000/svg"
    xmlns:svg="http://www.w3.org/2000/svg">
    <defs>
        <linearGradient id="gradient" x1="0%" y1="0%" x2="100%" y2="100%">
        <stop offset="0%" style="stop-color:#9c20aa; stop-opacity:1" />
        <stop offset="100%" style="stop-color:#fb3570; stop-opacity:1" />
        </linearGradient>
    </defs>
    <g id="g1" transform="translate(506,128)">
        <path
            id="path5"
            stroke="url(#gradient)"
            style="fill:#ffffff00;stroke-width:5;stroke-dasharray:none;stroke-opacity:1;"
            d="m -278.69808,-127.59649 c -8.18449,-0.41624 -16.27755,1.69499 -25.03125,6.29493 -7.66031,4.02538 -14.76936,9.70592 -30.31641,24.226558 -13.04974,12.18821 -18.17564,15.711651 -24.99805,17.181641 -2.8498,0.61403 -14.85664,1.512654 -26.68164,1.996094 -30.99952,1.26734 -41.3921,4.407731 -53.0039,16.019531 -11.71177,11.71177 -14.7102,21.836515 -15.9961,54.0039062 -0.60158,15.0490281 -1.41114,24.1900338 -2.44336,27.5996098 -1.90971,6.308044 -5.76839,11.458139 -20.52148,27.40039 -13.66175,14.762956 -17.94904,20.456149 -22.11719,29.363282 -6.58934,14.081103 -6.29672,26.499428 0.96875,41.115238 4.35191,8.75467 9.64257,15.52837 24.54492,31.42578 11.66002,12.43858 16.10429,18.90026 17.57618,25.55859 0.60331,2.72918 1.4892,14.65418 1.9707,26.5 1.26157,31.03709 4.39848,41.42387 16.01758,53.04297 11.71177,11.71177 21.83651,14.71019 54.0039,15.99609 15.28849,0.61116 24.17041,1.40377 27.70899,2.47461 6.33587,1.91737 11.2174,5.56289 26.79101,19.9961 18.38277,17.03667 27.01492,22.82171 38.76563,25.98632 10.85078,2.92225 21.68706,1.30229 33.76953,-5.04687 7.62796,-4.00838 14.90837,-9.81929 29.86719,-23.8418 12.43858,-11.66002 18.90221,-16.10429 25.56054,-17.57617 2.72918,-0.60331 14.65418,-1.49116 26.5,-1.97266 31.03709,-1.26157 41.42192,-4.39652 53.04102,-16.01562 11.71177,-11.71177 14.71215,-21.83847 15.99805,-54.00586 0.59606,-14.91075 1.41317,-24.19765 2.42382,-27.53516 1.88308,-6.21865 6.150916,-11.9874 19.294926,-26.08007 13.650106,-14.63528 18.883474,-21.47791 22.996094,-30.06446 6.97104,-14.55453 6.792134,-26.919174 -0.603516,-41.796872 -4.35192,-8.754663 -9.640616,-15.528371 -24.542969,-31.425781 -11.63416,-12.410994 -16.105755,-18.900244 -17.564455,-25.5 -0.5961,-2.697031 -1.49031,-14.6220305 -1.98828,-26.5000005 -1.30747,-31.1869905 -4.42016,-41.5080525 -16.01367,-53.1015625 -11.71176,-11.71177 -21.83653,-14.710194 -54.00391,-15.996094 -15.28977,-0.61121 -24.10228,-1.398621 -27.5,-2.457031 -6.36852,-1.98382 -12.95702,-6.967179 -29.80664,-22.542969 -7.43726,-6.875 -16.02177,-14.00848 -19.07812,-15.85352 -9.12625,-5.50927 -17.40341,-8.45289 -25.58789,-8.86914 z m -2.02735,31.72266 c 5.1905,0 12.76094,5.150718 27.78125,18.898438 17.76499,16.25987 22.64593,20.00323 31.44141,24.11914 9.53311,4.46107 18.1536,5.868775 42.44336,6.927735 12.00862,0.52355 23.80053,1.492137 26.20312,2.154297 5.33898,1.47143 10.24631,6.179179 11.94532,11.457031 0.69829,2.16919 1.71751,13.618359 2.26367,25.4433592 0.54617,11.8250001 1.63371,25.0279808 2.41797,29.3378908 2.78941,15.329139 8.02931,23.500104 31.20117,48.65625 11.128532,12.081508 16.302733,20.016544 16.302733,25.005859 0,5.19051 -5.148751,12.76288 -18.896483,27.7832 -16.25986,17.76499 -20.00324,22.64398 -24.11914,31.43946 -4.47771,9.56865 -5.94242,18.5341 -6.95899,42.60742 -0.5033,11.91852 -1.45747,23.63647 -2.12109,26.03906 -1.47499,5.3401 -6.18441,10.24869 -11.46094,11.94727 -2.16919,0.69829 -13.61836,1.71556 -25.44336,2.26172 -11.825,0.54617 -25.02602,1.63566 -29.33593,2.41992 -15.32914,2.78941 -23.5001,8.02932 -48.65625,31.20117 -6.68625,6.15885 -14.46254,12.34635 -17.2793,13.75 -2.81677,1.40366 -6.2945,2.55078 -7.72852,2.55078 -5.19051,0 -12.76093,-5.14876 -27.78125,-18.89648 -17.76499,-16.25986 -22.64397,-20.00324 -31.43945,-24.11914 -9.53311,-4.46108 -18.15555,-5.86877 -42.44531,-6.92774 -12.00862,-0.52354 -23.79858,-1.49214 -26.20117,-2.1543 -5.33898,-1.47143 -10.24826,-6.17918 -11.94727,-11.45703 -0.69829,-2.16919 -1.71751,-13.62031 -2.26367,-25.44531 -0.54617,-11.825 -1.63371,-25.02603 -2.41797,-29.33594 -2.78941,-15.32914 -8.02932,-23.50011 -31.20117,-48.65625 -11.12854,-12.08151 -16.30274,-20.01849 -16.30274,-25.00781 0,-5.173697 5.13415,-12.720309 18.80274,-27.642578 16.1689,-17.651902 20.0915,-22.766751 24.21484,-31.578125 4.46108,-9.533105 5.86681,-18.155544 6.92578,-42.4453124 0.52354,-12.0086126 1.49409,-23.7985826 2.15625,-26.2011716 1.47143,-5.338978 6.17918,-10.248266 11.45703,-11.947266 2.16919,-0.69829 13.61836,-1.715549 25.44336,-2.261719 11.825,-0.54616 25.02603,-1.635651 29.33594,-2.419921 15.32913,-2.78941 23.50206,-8.029312 48.6582,-31.201172 12.08151,-11.12853 20.01654,-16.302735 25.00586,-16.302735 z m -0.24609,82.19336 c -9.1386,0 -16.49609,7.3574962 -16.49609,16.4960934 V 112.57539 c 0,9.1386 7.35749,16.49414 16.49609,16.49414 h 0.63281 c 9.1386,0 16.4961,-7.35554 16.4961,-16.49414 V 2.8156234 c 0,-9.1385972 -7.3575,-16.4960934 -16.4961,-16.4960934 z m 0.31641,172.79492 a 23.968309,23.968309 0 0 0 -23.96875,23.96875 23.968309,23.968309 0 0 0 23.96875,23.96875 23.968309,23.968309 0 0 0 23.96875,-23.96875 23.968309,23.968309 0 0 0 -23.96875,-23.96875 z" />
    </g>
</svg>