<?xml version="1.0" encoding="UTF-8" standalone="no"?>
<svg
  version="1.1"
  id="svg1"
  width="384.59131"
  height="414.15131"
  viewBox="0 0 384.59131 414.15131"
  xml:space="preserve"
  xmlns="http://www.w3.org/2000/svg"
  xmlns:svg="http://www.w3.org/2000/svg">
  <defs id="defs1" />
  <g
    id="g1"
    transform="translate(-674.80847,4.8162184)">
    <path
      id="path3"
      style="fill:#ffffff00;stroke:#fff;stroke-width:5;stroke-dasharray:none;stroke-opacity:1"
      d="m 840.75188,-2.3161787 c 3.77152,-0.0076 6.3688,0.894649 8.85156,3.08007797 2.48053,2.18344003 3.59744,4.18039703 5.20703,9.30078073 0.78394,2.493908 1.71045,4.782388 2.05859,5.085938 0.34836,0.303167 2.41627,1.079078 4.59571,1.724609 2.17937,0.645298 4.73773,1.586894 5.68359,2.091797 2.00393,1.069116 4.57507,3.692547 5.58203,5.695313 3.0712,6.107737 1.13958,13.991282 -4.33008,17.667968 -1.8559,1.247564 -3.22081,1.79893 -7.85742,3.173828 -1.69676,0.503142 -3.35509,1.118548 -3.68554,1.365235 -0.33029,0.246921 -1.19245,2.394002 -1.91407,4.771484 -0.72167,2.37756 -1.62347,4.937873 -2.0039,5.689453 -1.49501,2.95561 -4.55616,5.488857 -7.9668,6.591797 -0.9311,0.30122 -2.77116,0.458097 -4.75977,0.404297 -3.81603,-0.10174 -6.33625,-1.078908 -8.91406,-3.455078 -2.07601,-1.91363 -3.16357,-4.000902 -4.75781,-9.132812 -0.72177,-2.323388 -1.55491,-4.467039 -1.85156,-4.763672 -0.29655,-0.296406 -1.20666,-0.718476 -2.02149,-0.9375 -3.61053,-0.972218 -7.92377,-2.537531 -9.18554,-3.333985 -1.96465,-1.240276 -4.00293,-3.625689 -5.10157,-5.96875 -0.82712,-1.764379 -0.94922,-2.487589 -0.94922,-5.626953 0,-3.282458 0.0995,-3.809788 1.11524,-5.943359 1.15874,-2.433894 3.44856,-5.026489 5.34765,-6.052735 0.60619,-0.327611 3.28764,-1.328321 5.95899,-2.224609 5.58287,-1.873123 5.10591,-1.361042 7.0332,-7.5742187 1.51408,-4.881146 3.04004,-7.3313 5.69727,-9.15039003 2.78186,-1.90455497 4.65357,-2.47111597 8.16797,-2.47851597 z m -94,37.5527337 c 1.10998,0.0037 2.21138,0.103149 3.29101,0.302735 7.20623,1.33212 12.57963,5.039617 15.6211,10.779297 0.96307,1.81739 3.50099,9.067638 5.64062,16.111328 2.90705,9.570086 4.189,12.994996 5.06641,13.554686 0.64619,0.41181 6.84437,2.47176 13.77343,4.57813 6.92894,2.10627 13.37327,4.22701 14.32032,4.71093 14.0649,7.18936 15.81144,27.805219 3.14453,37.103519 -3.15559,2.31646 -5.53692,3.20902 -20.61328,7.73047 -5.51334,1.65351 -10.45671,3.42474 -10.98828,3.93554 -0.53109,0.51116 -2.69124,6.6001 -4.79883,13.53126 -4.01823,13.21448 -5.08059,15.84837 -7.77539,19.27343 -8.58728,10.91394 -27.96809,10.09447 -35.63086,-3.03519 -0.79946,-1.36964 -3.2729,-8.4107 -5.4961,-15.64649 -2.23947,-7.28846 -4.48964,-13.57877 -5.04687,-14.10547 -0.55297,-0.52267 -6.41906,-2.57221 -13.03516,-4.55273 -6.6161,-1.98052 -13.42127,-4.26281 -15.12304,-5.07422 -4.27277,-2.03613 -7.80699,-5.66463 -9.97461,-10.24023 -1.65505,-3.49373 -1.82436,-4.35947 -1.81836,-9.29493 0.005,-4.71625 0.21412,-5.885939 1.5664,-8.783199 3.91691,-8.39256 6.68143,-10.16656 24.31055,-15.58789 7.41103,-2.27905 13.84132,-4.51124 14.29102,-4.96094 0.44946,-0.44946 2.57422,-6.59838 4.7207,-13.666013 2.14646,-7.06752 4.47629,-13.970954 5.17773,-15.339844 3.45692,-6.752287 11.60708,-11.350146 19.37696,-11.324219 z m -0.45703,18.257813 c -0.45527,0.05713 -0.88748,0.315272 -1.54297,0.804687 -1.25683,0.93839 -2.12525,3.17549 -5.31446,13.6875 -4.22987,13.942816 -5.2883,16.381146 -8.72656,20.111326 -3.53969,3.83994 -5.81839,4.89432 -20.12109,9.29688 -7.21147,2.21978 -13.59118,4.469639 -14.17774,4.999999 -1.36007,1.22972 -1.37095,3.76871 -0.0234,4.98828 0.57336,0.51886 6.82395,2.70815 13.89062,4.86523 7.06665,2.15711 13.72785,4.37829 14.80078,4.93555 2.75001,1.42718 7.20942,5.73564 8.8418,8.54102 0.7596,1.30561 3.13234,8.17316 5.27148,15.26171 2.13901,7.08865 4.24955,13.31339 4.68946,13.83399 1.47131,1.73845 4.22181,1.65954 5.68945,-0.16406 0.34533,-0.42905 2.34819,-6.4229 4.44922,-13.31836 4.26885,-14.01052 5.11697,-15.97079 8.49609,-19.63672 3.60273,-3.9086 6.20036,-5.11466 20.27735,-9.40821 7.15062,-2.18105 13.47179,-4.38884 14.04492,-4.9082 1.27333,-1.15236 1.35894,-3.8051 0.16015,-5.0039 -0.48563,-0.48564 -3.5162,-1.68523 -6.73242,-2.664069 -22.52843,-6.85892 -24.06706,-7.51519 -28.13281,-12.01562 -2.89691,-3.20645 -3.86974,-5.41813 -7.18359,-16.31055 -5.20298,-17.101474 -5.04384,-16.701276 -6.96875,-17.498046 -0.75362,-0.312225 -1.23224,-0.455567 -1.6875,-0.398437 z m 152.82617,32.283203 c 3.77152,-0.008 6.3688,0.8966 8.85156,3.08203 2.48053,2.18344 3.59744,4.17844 5.20703,9.29883 0.78394,2.493899 1.71046,4.782389 2.0586,5.085939 0.34835,0.30317 2.41821,1.07908 4.59765,1.72461 2.17937,0.6453 4.73578,1.58689 5.68164,2.09179 2.00393,1.06912 4.57507,3.69256 5.58203,5.69532 3.0712,6.10774 1.13958,13.99323 -4.33008,17.66992 -1.8559,1.24756 -3.22081,1.79697 -7.85742,3.17187 -1.69676,0.50314 -3.35509,1.11855 -3.68554,1.36524 -0.33029,0.24692 -1.19245,2.394 -1.91407,4.77148 -0.72167,2.37756 -1.62347,4.93787 -2.0039,5.68945 -1.49501,2.95561 -4.55616,5.48886 -7.9668,6.5918 -0.9311,0.30122 -2.77116,0.4581 -4.75977,0.4043 -3.81603,-0.10174 -6.33625,-1.07696 -8.91406,-3.45313 -2.07601,-1.91363 -3.16357,-4.00285 -4.75781,-9.13476 -0.72177,-2.32338 -1.55491,-4.46704 -1.85156,-4.76367 -0.29655,-0.29641 -1.20666,-0.71847 -2.02149,-0.9375 -3.61053,-0.97222 -7.92377,-2.53754 -9.18554,-3.33399 -1.96465,-1.24028 -4.00293,-3.62569 -5.10157,-5.96875 -0.82712,-1.76438 -0.94921,-2.48759 -0.94921,-5.62695 0,-3.28246 0.0995,-3.80979 1.11523,-5.94336 1.15874,-2.4339 3.44857,-5.02649 5.34766,-6.05274 0.60619,-0.32761 3.28763,-1.32832 5.95898,-2.22461 5.58287,-1.87311 5.10591,-1.36104 7.0332,-7.574209 1.51408,-4.88115 3.04004,-7.32935 5.69727,-9.14844 2.78186,-1.90455 4.65357,-2.47347 8.16797,-2.48047 z m -68.65821,62.730469 c 5.94514,0 7.28184,0.24184 9.41993,1.69726 4.24223,2.88717 5.64648,5.43181 5.64648,10.23243 0,8.05524 -5.10847,12.1056 -15.45312,12.23437 -9.5367,0.12463 -15.69974,3.63431 -19.31446,10.99609 -6.2881,13.61768 -0.43719,60.38694 -3.84179,66.32422 -0.50433,0.87969 -5.38628,5.79749 -10.84961,10.92969 -10.21053,9.59155 -11.97961,12.1101 -11.97461,17.03516 0.004,4.15235 1.70307,6.40249 12.67187,16.77929 5.42859,5.1356 10.21572,10.20881 10.63867,11.27344 2.74586,6.93929 -2.02716,55.43898 3.1875,65.25781 4.16086,7.8309 9.45948,10.82082 20.58008,11.61524 8.77973,0.62672 10.78086,1.61497 13.21485,6.52734 1.90366,3.85418 1.91863,7.12568 0.0469,10.79492 -1.59291,3.1223 -4.37381,5.29609 -7.94141,6.20313 -3.53164,0.8944 -15.30238,-0.10143 -20.74023,-1.75586 -13.72764,-4.17662 -24.53928,-14.87413 -29.16797,-28.86133 -1.97774,-5.9744 -1.99707,-6.28207 -2.32031,-32.90429 l -0.32813,-26.8711 -8.77929,-8.56445 c -6.9123,-6.74138 -9.28607,-9.60432 -11.1543,-13.45703 -4.06935,-8.3917 -5.05307,-16.87652 -2.91016,-25.10352 2.08389,-8.00088 4.55209,-11.71057 13.94727,-20.96875 l 8.89258,-8.76172 0.34961,-26.66797 c 0.3895,-29.69417 0.60638,-31.26214 5.66992,-40.92187 7.54142,-14.38697 22.77919,-23.0625 40.50976,-23.0625 z m 156.01954,0.008 c 17.78445,0 32.91875,8.61894 40.50585,23.06641 5.0944,9.70087 5.3023,11.20141 5.6738,41.00976 l 0.3321,26.76172 8.457,8.03321 c 5.953,5.65647 9.1604,9.35647 10.8359,12.5 5.9756,11.2105 6.1955,22.68663 0.6543,34.11328 -1.8682,3.85274 -4.242,6.71569 -11.1543,13.45703 l -8.7812,8.56445 -0.332,26.87305 c -0.3137,25.32927 -0.4299,27.17466 -2.0332,32.14843 -5.5211,17.1243 -19.6296,29.06444 -36.98638,31.30079 h -0.002 c -11.57204,1.49013 -18.24191,-0.43277 -21.12891,-6.0918 -1.89345,-3.7072 -1.8841,-6.97048 0.0312,-10.83594 2.43399,-4.91234 4.43316,-5.90013 13.21289,-6.52734 11.12061,-0.79378 16.4192,-3.78437 20.5801,-11.61524 5.8178,-12.26198 0.2671,-57.90116 3.1894,-65.25781 0.4227,-1.06463 5.2101,-6.13786 10.6387,-11.27344 10.8932,-10.30542 12.6689,-12.63626 12.6719,-16.64257 0,-5.1261 -1.3888,-7.13455 -11.7539,-16.91407 -5.5798,-5.26456 -10.5599,-10.29517 -11.0664,-11.17968 -3.127,-5.46644 1.6795,-55.08646 -3.7871,-66.2168 -3.6942,-7.52277 -10.0562,-11.13577 -19.65434,-11.16797 -10.00051,-0.0307 -15.17187,-4.18071 -15.17187,-12.17773 0,-4.80059 1.40424,-7.34526 5.64648,-10.23243 2.13806,-1.45486 3.47674,-1.69531 9.42188,-1.69531 z M 961.15422,260.4887 c 9.52164,-0.50684 17.42188,6.8951 17.42188,17.36523 0,7.24987 -4.99975,14.09046 -11.78516,16.12305 -5.62962,1.6865 -11.54627,0.35945 -16.21484,-3.63672 -10.24671,-8.77072 -6.59371,-25.35414 6.41796,-29.13672 1.40817,-0.40937 2.79993,-0.64244 4.16016,-0.71484 z m -105.36328,0.002 c 1.35847,0.072 2.74937,0.30447 4.1543,0.71289 9.89083,2.87528 15.12964,14.13968 10.90429,23.44336 -1.57779,3.474 -6.17337,7.67533 -9.97656,9.12109 -3.13114,1.18908 -10.20185,0.78813 -13.16992,-0.74609 -5.69748,-2.94619 -9.3418,-8.88369 -9.3418,-15.22266 0,-10.42048 7.92042,-17.81249 17.42969,-17.30859 z m 52.67773,0.10742 c 6.97627,0 13.95266,4.04895 16.30664,12.14649 2.52582,8.68821 -1.18754,16.65939 -9.52148,20.4375 -1.86565,0.84591 -4.91933,1.53711 -6.78516,1.53711 -3.73228,0 -9.19403,-2.16005 -11.94531,-4.72461 -4.45688,-4.1525 -6.18308,-10.98373 -4.36133,-17.25 2.35398,-8.09754 9.33037,-12.14649 16.30664,-12.14649 z" />
  </g>
</svg>