<svg xmlns="http://www.w3.org/2000/svg" xml:space="preserve" style="fill-rule:evenodd;clip-rule:evenodd;stroke-linejoin:round;stroke-miterlimit:2" viewBox="0 0 2085 1504"><path d="M782.735 1070.596c8.947 0 16.201 6.95 16.201 15.525v1201.118c0 8.574-7.254 15.525-16.201 15.525H627.69c-8.948 0-16.201-6.951-16.201-15.525V1086.121c0-8.575 7.253-15.525 16.201-15.525z" style="fill:#c45fce" transform="rotate(24.271 3121.908 1648.124)scale(.92587 .96619)"/><path d="M782.735 1070.596c8.947 0 16.201 6.95 16.201 15.525v1201.118c0 8.574-7.254 15.525-16.201 15.525H627.69c-8.948 0-16.201-6.951-16.201-15.525V1086.121c0-8.575 7.253-15.525 16.201-15.525z" style="fill:#b65fd9" transform="rotate(24.271 2628.218 2544.047)scale(.92587 .96619)"/><path d="M366.175 399.294a2.48 2.48 0 0 0 .716-1.745v-85.25a2.486 2.486 0 0 1 2.49-2.485l64.531.129a2.486 2.486 0 0 1 2.48 2.485v23.159a2.485 2.485 0 0 1-2.485 2.485h-31.646a2.486 2.486 0 0 0-2.485 2.485v69.448c0 .696-.292 1.361-.805 1.831l-22.62 20.761a2.483 2.483 0 0 0-.051 3.613l22.722 22.069c.482.468.754 1.111.754 1.783v68.544a2.485 2.485 0 0 0 2.485 2.484h31.646a2.486 2.486 0 0 1 2.485 2.485v22.883a2.485 2.485 0 0 1-2.485 2.485h-64.531a2.486 2.486 0 0 1-2.485-2.485V472.16c0-.642-.248-1.259-.693-1.722l-22.176-23.073a2.49 2.49 0 0 1-.694-1.722v-22.177c0-.653.258-1.28.716-1.745z" style="fill:#ef5ca8" transform="translate(-2072.566 -1870.193)scale(6.03669)"/><path d="M366.175 399.294a2.48 2.48 0 0 0 .716-1.745v-85.25a2.486 2.486 0 0 1 2.49-2.485l64.531.129a2.486 2.486 0 0 1 2.48 2.485v23.159a2.485 2.485 0 0 1-2.485 2.485h-31.646a2.486 2.486 0 0 0-2.485 2.485v69.448c0 .696-.292 1.361-.805 1.831l-22.62 20.761a2.483 2.483 0 0 0-.051 3.613l22.722 22.069c.482.468.754 1.111.754 1.783v68.544a2.485 2.485 0 0 0 2.485 2.484h31.646a2.486 2.486 0 0 1 2.485 2.485v22.883a2.485 2.485 0 0 1-2.485 2.485h-64.531a2.486 2.486 0 0 1-2.485-2.485V472.16c0-.642-.248-1.259-.693-1.722l-22.176-23.073a2.49 2.49 0 0 1-.694-1.722v-22.177c0-.653.258-1.28.716-1.745z" style="fill:#9e5dec" transform="matrix(-6.03669 0 0 6.03669 4156.596 -1870.222)"/></svg>