<svg xmlns="http://www.w3.org/2000/svg" width="284.457" height="297.226">
   <path stroke="#90a1b9"
      d="M278.817 149.344a10.92 10.92 0 0 1 2.982 9.513l-7.426 45.33a10.885 10.885 0 0 1-8.946 8.947 10.4 10.4 0 0 1-1.73 0 11.57 11.57 0 0 1-8.112-3.31l-8.53-8.53-57.08 57.2a14.315 14.315 0 0 1-20.25 0l-28.956-28.958-61.136 61.047a14.319 14.319 0 0 1-20.25-20.25l71.186-71.156a14.315 14.315 0 0 1 20.25 0l28.957 28.958 47.06-47.06-8.618-8.56a11.12 11.12 0 0 1-3.37-8.648 10.945 10.945 0 0 1 9.125-10.05l45.33-7.485a10.4 10.4 0 0 1 1.79-.15 10.95 10.95 0 0 1 7.724 3.162M59.95 233.83l10.736-10.617 10.348-10.35a12.943 12.943 0 0 0 1.223-17.266 12.585 12.585 0 0 0-18.61-.924l-10.853 10.645a107.96 107.96 0 0 1-22.606-54.724h15.985a12.585 12.585 0 0 0 0-25.17H30.336A107.96 107.96 0 0 1 52.793 70.7l10.736 10.736a12.585 12.585 0 0 0 18.609-.925 12.943 12.943 0 0 0-1.223-17.237l-10.23-10.346a107.96 107.96 0 0 1 54.725-22.606v15.18a12.585 12.585 0 0 0 25.17 0v-15.18l4.175.567a107.78 107.78 0 0 1 59.347 30.807l.477.477a107.06 107.06 0 0 1 29.077 51.086l.15.656a13.6 13.6 0 0 0 15.388 10.557 13.897 13.897 0 0 0 10.915-16.94A135.543 135.543 0 1 0 42.176 233.86a12.585 12.585 0 0 0 17.774-.03M200.62 75.773a11.93 11.93 0 0 0-16.013-.865l-42.348 33.908a29.584 29.584 0 1 0 25.588 29.286 30 30 0 0 0-.3-3.997l33.939-42.11a11.93 11.93 0 0 0-.894-16.103z"
      style="fill:transparent;stroke:#90a1b9;stroke-width:5;stroke-dasharray:none;stroke-opacity:1" />
</svg>