<svg xmlns="http://www.w3.org/2000/svg" xml:space="preserve" style="fill-rule:evenodd;clip-rule:evenodd;stroke-linejoin:round;stroke-miterlimit:2" viewBox="0 0 4086 2383"><path d="M784.045 1070.596c8.224 0 14.891 6.388 14.891 14.269v1203.629c0 7.881-6.667 14.27-14.891 14.27H626.38c-8.224 0-14.891-6.389-14.891-14.27V1084.865c0-7.881 6.667-14.269 14.891-14.269h157.665Z" style="fill:#c45fce" transform="matrix(.91827 .41406 -.4321 .95826 1946.415 -1237.667)"/><path d="M784.045 1070.596c8.224 0 14.891 6.388 14.891 14.269v1203.629c0 7.881-6.667 14.27-14.891 14.27H626.38c-8.224 0-14.891-6.389-14.891-14.27V1084.865c0-7.881 6.667-14.269 14.891-14.269h157.665Z" style="fill:#b65fd9" transform="matrix(.91827 .41406 -.4321 .95826 2299.608 -930.725)"/><path d="M366.233 399.235a2.28 2.28 0 0 0 .658-1.604v-85.533a2.287 2.287 0 0 1 2.289-2.284l64.932.13a2.284 2.284 0 0 1 2.28 2.284v23.56a2.284 2.284 0 0 1-2.284 2.284H402.06a2.284 2.284 0 0 0-2.284 2.284v69.738a2.28 2.28 0 0 1-.74 1.682l-22.842 20.964a2.285 2.285 0 0 0-.047 3.321l22.936 22.277c.443.43.693 1.021.693 1.639v68.829a2.284 2.284 0 0 0 2.284 2.284h32.048a2.285 2.285 0 0 1 2.284 2.284v23.285a2.284 2.284 0 0 1-2.284 2.284h-64.933a2.285 2.285 0 0 1-2.284-2.284v-84.58c0-.59-.228-1.158-.637-1.583l-22.288-23.189a2.286 2.286 0 0 1-.638-1.583v-22.34c0-.6.237-1.177.658-1.604l22.247-22.545Z" style="fill:#ef5ca8" transform="matrix(6.56766 0 0 6.56766 -1345.73 -2034.69)"/><path d="M366.233 399.235a2.28 2.28 0 0 0 .658-1.604v-85.533a2.287 2.287 0 0 1 2.289-2.284l64.932.13a2.284 2.284 0 0 1 2.28 2.284v23.56a2.284 2.284 0 0 1-2.284 2.284H402.06a2.284 2.284 0 0 0-2.284 2.284v69.738a2.28 2.28 0 0 1-.74 1.682l-22.842 20.964a2.285 2.285 0 0 0-.047 3.321l22.936 22.277c.443.43.693 1.021.693 1.639v68.829a2.284 2.284 0 0 0 2.284 2.284h32.048a2.285 2.285 0 0 1 2.284 2.284v23.285a2.284 2.284 0 0 1-2.284 2.284h-64.933a2.285 2.285 0 0 1-2.284-2.284v-84.58c0-.59-.228-1.158-.637-1.583l-22.288-23.189a2.286 2.286 0 0 1-.638-1.583v-22.34c0-.6.237-1.177.658-1.604l22.247-22.545Z" style="fill:#9e5dec" transform="matrix(-6.56766 0 0 6.56766 5431.33 -2034.721)"/><g style="stroke-width:1.99411603;stroke-dasharray:none;stroke:#000;stroke-opacity:.5"><path d="M4828.558 1995.813c-10.08 0-18.448 3.6-25.108 10.8-6.66 7.2-9.991 16.2-9.991 27 0 10.4 3.331 19.199 9.991 26.399 6.66 7.2 15.028 10.799 25.108 10.799 10.44 0 18.901-3.698 25.381-11.098s9.719-16.502 9.719-27.302c0-10.4-3.329-19.1-9.989-26.1s-15.03-10.498-25.11-10.498zm-2139.899 29.398c-28.8 0-55.35 5.3-79.65 15.9-24.3 10.6-45.451 25.601-63.451 45.001s-32.038 42.101-42.118 68.101c-10.08 26-15.122 54.599-15.122 85.799 0 31.2 5.042 59.799 15.122 85.799 10.08 26 24.028 48.701 41.848 68.101s38.88 34.4 63.18 45c24.3 10.6 50.85 15.901 79.65 15.901 29.52 0 56.611-5.602 81.272-16.802 24.66-11.2 45.63-27.599 62.91-49.198l-35.102-37.8c-14.4 17.2-30.599 29.898-48.599 38.098-18 8.2-37.26 12.3-57.78 12.3-21.24 0-40.95-3.999-59.13-11.999s-33.931-19.201-47.251-33.601c-13.32-14.4-23.67-31.5-31.05-51.3-7.38-19.8-11.068-41.299-11.068-64.499 0-23.2 3.689-44.7 11.069-64.5 7.38-19.8 17.729-36.899 31.049-51.299 13.32-14.4 29.071-25.601 47.251-33.601 18.18-8 37.89-11.999 59.13-11.999 20.52 0 39.78 4.1 57.78 12.3 18 8.2 34.2 20.699 48.6 37.499l35.101-37.8c-17.28-21.6-38.25-37.9-62.91-48.9-24.66-11-51.571-16.501-80.731-16.501zm-2079.24 4.8-171.18 420.001h55.62l41.529-105H736.37l41.529 105h56.7l-171.72-420h-53.46zm917.161 0v420.001h54v-312.96l226.8 312.96h44.28v-420h-54.002v312.96l-226.8-312.96h-44.278zm768.958 32.4v69.602h-48.6v47.4h48.6v174.599c0 32 7.92 56.6 23.76 73.8 15.84 17.2 38.162 25.799 66.962 25.799 11.88 0 23.31-1.798 34.29-5.398 10.98-3.6 20.43-9.202 28.35-16.802l-16.202-41.399c-10.8 10-24.3 15-40.5 15-14.4 0-25.47-4.6-33.21-13.8-7.74-9.2-11.608-22.4-11.608-39.6v-172.2h82.08v-47.399h-82.08v-69.602h-51.842zm2291.101 0v69.602h-48.601v47.4h48.601v174.599c0 32 7.921 56.6 23.761 73.8 15.84 17.2 38.159 25.799 66.959 25.799 11.88 0 23.31-1.798 34.29-5.398 10.98-3.6 20.43-9.202 28.35-16.802l-16.2-41.399c-10.8 10-24.3 15-40.5 15-14.4 0-25.469-4.6-33.209-13.8-7.74-9.2-11.611-22.4-11.611-39.6v-172.2h82.08v-47.399h-82.08v-69.602h-51.84zm-3950.759 28.51 81.507 206.092H554.371l81.51-206.092zm336.658 38.09c-24.48 0-45.628 3.9-63.448 11.7-17.82 7.8-31.59 18.9-41.31 33.3-9.72 14.4-14.58 31.201-14.58 50.401 0 18.4 3.239 33.1 9.719 44.1 6.48 11 15.12 19.6 25.92 25.8 10.8 6.2 22.68 11 35.64 14.4 12.96 3.4 25.92 6.2 38.88 8.4s24.75 4.7 35.37 7.5c10.62 2.8 19.17 7 25.65 12.6 6.48 5.6 9.72 13.4 9.72 23.4 0 13.6-5.31 24.2-15.93 31.8-10.62 7.6-27.99 11.4-52.11 11.4-18.72 0-37.08-3.199-55.08-9.599s-33.12-14.202-45.36-23.402l-21.6 45.6c12.24 10.4 29.071 19.201 50.491 26.401 21.42 7.2 44.009 10.799 67.769 10.799 25.56 0 47.521-3.9 65.881-11.7 18.36-7.8 32.578-18.698 42.658-32.698 10.08-14 15.122-30.6 15.122-49.8 0-18-3.331-32.401-9.991-43.201-6.66-10.8-15.301-19.2-25.921-25.2s-22.41-10.701-35.37-14.101c-12.96-3.4-25.92-6.2-38.88-8.4s-24.75-4.898-35.37-8.098c-10.62-3.2-19.26-7.702-25.92-13.502-6.66-5.8-9.989-14.098-9.989-24.898 0-12.8 5.58-23.3 16.74-31.5 11.16-8.2 28.079-12.3 50.759-12.3 14.04 0 28.08 1.798 42.12 5.398 14.04 3.6 27.54 10.2 40.5 19.8l22.14-45.6c-12.24-9.2-27.99-16.298-47.25-21.298s-38.25-7.502-56.97-7.502zm329.94 0c-24.48 0-46.528 6.002-66.148 18.002-14.128 8.641-26.075 20.444-35.91 35.307v-50.307h-49.682v434.398h51.84v-164.735c9.75 13.983 21.33 25.24 34.832 33.635 19.62 12.2 41.308 18.3 65.068 18.3 28.08 0 52.92-6.798 74.52-20.398 21.6-13.6 38.702-32.601 51.302-57.001 12.6-24.4 18.9-52.8 18.9-85.2 0-32.4-6.3-60.7-18.9-84.9-12.6-24.2-29.702-43.1-51.302-56.7-21.6-13.6-46.44-20.4-74.52-20.4zm772.201 0c-27.36 0-51.93 6.9-73.71 20.7-21.78 13.8-38.879 32.902-51.299 57.302-12.42 24.4-18.632 52.4-18.632 84s6.39 59.6 19.17 84c12.78 24.4 30.782 43.6 54.002 57.6 23.22 14 50.128 20.998 80.728 20.998 23.76 0 45.27-4.398 64.53-13.198 19.26-8.8 35.372-21.6 48.332-38.4l-28.621-37.2c-10.44 12.8-22.59 22.398-36.45 28.798-13.86 6.4-29.251 9.602-46.171 9.602-20.52 0-38.7-4.6-54.54-13.8-15.84-9.2-28.17-22.102-36.99-38.702-6.506-12.245-10.595-25.75-12.302-40.5h232.354c.36-2.8.63-5.8.81-9 .18-3.2.27-6 .27-8.4 0-32.8-6.03-61.5-18.09-86.1-12.06-24.6-28.712-43.699-49.952-57.299-21.24-13.6-45.719-20.4-73.439-20.4zm931.26 0c-28.8 0-54.36 6.9-76.68 20.7-22.32 13.8-39.96 32.902-52.92 57.302s-19.44 52.4-19.44 84c0 31.2 6.48 59.098 19.44 83.698 12.96 24.6 30.6 43.902 52.92 57.902s47.88 20.998 76.68 20.998c28.44 0 53.91-6.998 76.41-20.998s40.14-33.2 52.92-57.6c12.78-24.4 19.17-52.4 19.17-84 0-32-6.39-60.101-19.17-84.301-12.78-24.2-30.42-43.201-52.92-57.001-22.5-13.8-47.97-20.7-76.41-20.7zm373.141 0c-25.92 0-48.601 5.802-68.041 17.402-14.51 8.658-26.206 19.883-35.1 33.666v-48.066h-49.679v318h51.84v-163.801c0-23.2 3.688-42.601 11.068-58.201 7.38-15.6 17.912-27.398 31.592-35.398 13.68-8 29.699-12.001 48.059-12.001 24.48 0 43.47 7.8 56.97 23.4 13.5 15.6 20.25 38.799 20.25 69.599v176.401h51.839v-182.999c0-31.2-5.04-57.002-15.12-77.402-10.08-20.4-24.03-35.6-41.85-45.6s-38.428-15-61.828-15zm618.96 0c-27.36 0-51.932 6.9-73.712 20.7-21.78 13.8-38.88 32.902-51.3 57.302-12.42 24.4-18.629 52.4-18.629 84s6.39 59.6 19.17 84c12.78 24.4 30.78 43.6 54 57.6s50.13 20.998 80.73 20.998c23.76 0 45.271-4.398 64.531-13.198 19.26-8.8 35.369-21.6 48.329-38.4l-28.619-37.2c-10.44 12.8-22.592 22.398-36.452 28.798-13.86 6.4-29.249 9.602-46.169 9.602-20.52 0-38.7-4.6-54.54-13.8-15.84-9.2-28.17-22.102-36.99-38.702-6.506-12.245-10.595-25.75-12.301-40.5h232.35c.36-2.8.63-5.8.81-9 .18-3.2.27-6 .27-8.4 0-32.8-6.03-61.5-18.09-86.1-12.06-24.6-28.708-43.699-49.948-57.299-21.24-13.6-45.72-20.4-73.44-20.4zm366.118 0c-25.92 0-48.599 5.802-68.039 17.402-14.51 8.658-26.205 19.883-35.1 33.666v-48.066h-49.681v318h51.842v-163.801c0-23.2 3.689-42.601 11.069-58.201 7.38-15.6 17.909-27.398 31.589-35.398 13.68-8 29.701-12.001 48.061-12.001 24.48 0 43.47 7.8 56.97 23.4 13.5 15.6 20.25 38.799 20.25 69.599v176.401h51.84v-182.999c0-31.2-5.04-57.002-15.12-77.402-10.08-20.4-24.03-35.6-41.85-45.6s-38.431-15-61.831-15zm711.72 0c-28.8 0-54.36 6.9-76.68 20.7-22.32 13.8-39.96 32.902-52.92 57.302s-19.44 52.4-19.44 84c0 31.2 6.48 59.098 19.44 83.698 12.96 24.6 30.6 43.902 52.92 57.902s47.88 20.998 76.68 20.998c28.44 0 53.91-6.998 76.41-20.998s40.142-33.2 52.922-57.6c12.78-24.4 19.17-52.4 19.17-84 0-32-6.39-60.101-19.17-84.301-12.78-24.2-30.422-43.201-52.922-57.001-22.5-13.8-47.97-20.7-76.41-20.7zm373.141 0c-25.92 0-48.601 5.802-68.041 17.402-14.51 8.658-26.205 19.883-35.1 33.666v-48.066H5296.2v318h51.84v-163.801c0-23.2 3.691-42.601 11.071-58.201 7.38-15.6 17.91-27.398 31.59-35.398 13.68-8 29.698-12.001 48.058-12.001 24.48 0 43.47 7.8 56.97 23.4 13.5 15.6 20.25 38.799 20.25 69.599v176.401h51.842v-182.999c0-31.2-5.042-57.002-15.122-77.402s-24.028-35.6-41.848-45.6-38.43-15-61.83-15zm307.26 0c-24.48 0-45.63 3.9-63.45 11.7-17.82 7.8-31.59 18.9-41.31 33.3-9.72 14.4-14.58 31.201-14.58 50.401 0 18.4 3.241 33.1 9.721 44.1s15.118 19.6 25.918 25.8c10.8 6.2 22.68 11 35.64 14.4 12.96 3.4 25.92 6.2 38.88 8.4s24.752 4.7 35.372 7.5c10.62 2.8 19.169 7 25.649 12.6s9.72 13.4 9.72 23.4c0 13.6-5.311 24.2-15.931 31.8-10.62 7.6-27.99 11.4-52.11 11.4-18.72 0-37.08-3.199-55.08-9.599s-33.12-14.202-45.36-23.402l-21.598 45.6c12.24 10.4 29.07 19.201 50.49 26.401 21.42 7.2 44.008 10.799 67.768 10.799 25.56 0 47.521-3.9 65.881-11.7 18.36-7.8 32.58-18.698 42.66-32.698 10.08-14 15.12-30.6 15.12-49.8 0-18-3.331-32.401-9.991-43.201-6.66-10.8-15.299-19.2-25.919-25.2-10.62-6-22.41-10.701-35.37-14.101-12.96-3.4-25.92-6.2-38.88-8.4s-24.749-4.898-35.369-8.098c-10.62-3.2-19.26-7.702-25.92-13.502-6.66-5.8-9.992-14.098-9.992-24.898 0-12.8 5.582-23.3 16.742-31.5s28.08-12.3 50.76-12.3c14.04 0 28.08 1.798 42.12 5.398 14.04 3.6 27.54 10.2 40.5 19.8l22.138-45.6c-12.24-9.2-27.989-16.298-47.249-21.298s-38.25-7.502-56.97-7.502zm-2218.5 3.002 125.28 318h52.92l125.28-318h-50.76l-100.316 254.767-98.405-254.767h-54zm1264.861 0v318h51.84v-318h-51.84zm-2727.961 45.6c18.36 0 34.469 4.499 48.329 13.499s24.752 21.499 32.672 37.499c6.005 12.133 9.616 25.538 10.86 40.202h-183.943c1.513-14.567 5.2-27.871 11.081-39.901 7.92-16.2 18.902-28.8 32.942-37.8 14.04-9 30.059-13.5 48.059-13.5zm1923.361 0c18.36 0 34.469 4.499 48.329 13.499s24.75 21.499 32.67 37.499c6.005 12.133 9.618 25.538 10.863 40.202h-183.947c1.514-14.567 5.203-27.871 11.085-39.901 7.92-16.2 18.899-28.8 32.939-37.8 14.04-9 30.061-13.5 48.061-13.5zm-2699.882 1.8c18.36 0 34.831 4.6 49.411 13.8 14.58 9.2 26.1 22.098 34.56 38.698s12.689 36.302 12.689 59.102c0 22.4-4.23 42.099-12.69 59.099-8.46 17-19.979 30.1-34.559 39.3-14.58 9.2-31.051 13.8-49.411 13.8-18 0-34.29-4.6-48.87-13.8-14.58-9.2-26.099-22.3-34.559-39.3-8.46-17-12.689-36.7-12.689-59.1 0-22.8 4.23-42.501 12.69-59.101 8.46-16.6 19.979-29.498 34.559-38.698 14.58-9.2 30.869-13.8 48.869-13.8zm1707.78 0c18.36 0 34.83 4.6 49.41 13.8 14.58 9.2 26.012 22.098 34.292 38.698 8.28 16.6 12.419 36.302 12.419 59.102 0 22.4-4.14 42.099-12.42 59.099-8.28 17-19.711 30.1-34.291 39.3-14.58 9.2-31.05 13.8-49.41 13.8-18.36 0-34.738-4.6-49.138-13.8-14.4-9.2-25.922-22.3-34.562-39.3-8.64-17-12.96-36.7-12.96-59.1 0-22.8 4.32-42.501 12.96-59.101s20.162-29.498 34.562-38.698c14.4-9.2 30.779-13.8 49.139-13.8zm2069.94 0c18.36 0 34.832 4.6 49.412 13.8 14.58 9.2 26.01 22.098 34.29 38.698 8.28 16.6 12.418 36.302 12.418 59.102 0 22.4-4.139 42.099-12.419 59.099-8.28 17-19.71 30.1-34.29 39.3-14.58 9.2-31.05 13.8-49.41 13.8-18.36 0-34.74-4.6-49.14-13.8-14.4-9.2-25.92-22.3-34.56-39.3-8.64-17-12.961-36.7-12.961-59.1 0-22.8 4.322-42.501 12.962-59.101s20.16-29.498 34.56-38.698c14.4-9.2 30.778-13.8 49.138-13.8z" style="fill:#fff;fill-rule:nonzero;stroke-width:1.99411603;stroke-dasharray:none;stroke:#000;stroke-opacity:.5" transform="matrix(.75221 0 0 .75221 -329.65 451.833)"/></g></svg>