<?xml version="1.0" encoding="UTF-8" standalone="no"?>
<!DOCTYPE svg PUBLIC "-//W3C//DTD SVG 1.1//EN" "http://www.w3.org/Graphics/SVG/1.1/DTD/svg11.dtd">
<svg width="100%" height="100%" viewBox="0 0 4086 2383" version="1.1" xmlns="http://www.w3.org/2000/svg" xmlns:xlink="http://www.w3.org/1999/xlink" xml:space="preserve" xmlns:serif="http://www.serif.com/" style="fill-rule:evenodd;clip-rule:evenodd;stroke-linejoin:round;stroke-miterlimit:2;">
    <g transform="matrix(1,0,0,1,-507.199843,-431.993978)">
        <g transform="matrix(1.05117,0,0,1.05117,-156.373257,25.514755)">
            <g transform="matrix(0.873569,0.393905,-0.411058,0.911609,2482.936199,-790.725954)">
                <path d="M784.045,1070.596C792.269,1070.596 798.936,1076.984 798.936,1084.865C798.936,1212.786 798.936,2160.573 798.936,2288.494C798.936,2296.375 792.269,2302.764 784.045,2302.764C748.966,2302.764 661.459,2302.764 626.38,2302.764C618.156,2302.764 611.489,2296.375 611.489,2288.494C611.489,2160.573 611.489,1212.786 611.489,1084.865C611.489,1076.984 618.156,1070.596 626.38,1070.596C661.459,1070.596 748.966,1070.596 784.045,1070.596Z" style="fill:rgb(196,95,206);"/>
            </g>
            <g transform="matrix(0.873569,0.393905,-0.411058,0.911609,2818.936199,-498.725954)">
                <path d="M784.045,1070.596C792.269,1070.596 798.936,1076.984 798.936,1084.865C798.936,1212.786 798.936,2160.573 798.936,2288.494C798.936,2296.375 792.269,2302.764 784.045,2302.764C748.966,2302.764 661.459,2302.764 626.38,2302.764C618.156,2302.764 611.489,2296.375 611.489,2288.494C611.489,2160.573 611.489,1212.786 611.489,1084.865C611.489,1076.984 618.156,1070.596 626.38,1070.596C661.459,1070.596 748.966,1070.596 784.045,1070.596Z" style="fill:rgb(182,95,217);"/>
            </g>
            <g transform="matrix(6.24795,0,0,6.24795,-648.950483,-1548.950483)">
                <path d="M366.233,399.235C366.655,398.808 366.891,398.232 366.891,397.631L366.891,312.098C366.891,311.491 367.133,310.91 367.562,310.481C367.991,310.053 368.573,309.813 369.18,309.814C379.727,309.835 423.584,309.923 434.112,309.944C435.372,309.946 436.392,310.968 436.392,312.228C436.392,317.504 436.392,330.508 436.392,335.788C436.392,336.394 436.151,336.975 435.723,337.403C435.294,337.831 434.714,338.072 434.108,338.072L402.06,338.072C401.454,338.072 400.873,338.313 400.445,338.741C400.017,339.169 399.776,339.75 399.776,340.356L399.776,410.094C399.776,410.733 399.508,411.344 399.036,411.776C395.614,414.918 381.263,428.089 376.194,432.74C375.731,433.165 375.464,433.762 375.455,434.391C375.446,435.019 375.697,435.624 376.147,436.061C381.197,440.966 395.737,455.088 399.083,458.338C399.526,458.768 399.776,459.359 399.776,459.977C399.776,467.555 399.776,517.477 399.776,528.806C399.776,529.412 400.017,529.993 400.445,530.421C400.873,530.85 401.454,531.09 402.06,531.09L434.108,531.09C435.369,531.09 436.392,532.113 436.392,533.374L436.392,556.659C436.392,557.265 436.151,557.846 435.723,558.274C435.294,558.702 434.713,558.943 434.108,558.943C423.57,558.943 379.713,558.943 369.175,558.943C367.914,558.943 366.891,557.92 366.891,556.659L366.891,472.079C366.891,471.489 366.663,470.921 366.254,470.496C362.9,467.006 347.32,450.796 343.966,447.307C343.557,446.881 343.328,446.314 343.328,445.724C343.328,441.896 343.328,427.245 343.328,423.384C343.328,422.784 343.565,422.207 343.986,421.78C347.377,418.344 362.843,402.671 366.233,399.235Z" style="fill:rgb(239,92,168);"/>
            </g>
            <g transform="matrix(-6.24795,0,0,6.24795,5798.208988,-1548.980508)">
                <path d="M366.233,399.235C366.655,398.808 366.891,398.232 366.891,397.631L366.891,312.098C366.891,311.491 367.133,310.91 367.562,310.481C367.991,310.053 368.573,309.813 369.18,309.814C379.727,309.835 423.584,309.923 434.112,309.944C435.372,309.946 436.392,310.968 436.392,312.228C436.392,317.504 436.392,330.508 436.392,335.788C436.392,336.394 436.151,336.975 435.723,337.403C435.294,337.831 434.714,338.072 434.108,338.072L402.06,338.072C401.454,338.072 400.873,338.313 400.445,338.741C400.017,339.169 399.776,339.75 399.776,340.356L399.776,410.094C399.776,410.733 399.508,411.344 399.036,411.776C395.614,414.918 381.263,428.089 376.194,432.74C375.731,433.165 375.464,433.762 375.455,434.391C375.446,435.019 375.697,435.624 376.147,436.061C381.197,440.966 395.737,455.088 399.083,458.338C399.526,458.768 399.776,459.359 399.776,459.977C399.776,467.555 399.776,517.477 399.776,528.806C399.776,529.412 400.017,529.993 400.445,530.421C400.873,530.85 401.454,531.09 402.06,531.09L434.108,531.09C435.369,531.09 436.392,532.113 436.392,533.374L436.392,556.659C436.392,557.265 436.151,557.846 435.723,558.274C435.294,558.702 434.713,558.943 434.108,558.943C423.57,558.943 379.713,558.943 369.175,558.943C367.914,558.943 366.891,557.92 366.891,556.659L366.891,472.079C366.891,471.489 366.663,470.921 366.254,470.496C362.9,467.006 347.32,450.796 343.966,447.307C343.557,446.881 343.328,446.314 343.328,445.724C343.328,441.896 343.328,427.245 343.328,423.384C343.328,422.784 343.565,422.207 343.986,421.78C347.377,418.344 362.843,402.671 366.233,399.235Z" style="fill:rgb(158,93,236);"/>
            </g>
        </g>
        <g transform="matrix(0.752213,0,0,0.752213,177.55052,883.826649)">
            <path d="M438.239,2450.012L609.419,2030.012L662.879,2030.012L834.599,2450.012L777.899,2450.012L625.079,2063.612L646.679,2063.612L493.859,2450.012L438.239,2450.012ZM511.139,2345.012L525.719,2297.012L738.479,2297.012L754.139,2345.012L511.139,2345.012Z" style="fill-rule:nonzero;"/>
            <path d="M962.279,2453.612C938.519,2453.612 915.929,2450.012 894.509,2442.812C873.089,2435.612 856.259,2426.812 844.019,2416.412L865.619,2370.812C877.859,2380.012 892.979,2387.812 910.979,2394.212C928.979,2400.612 947.339,2403.812 966.059,2403.812C990.179,2403.812 1007.549,2400.012 1018.169,2392.412C1028.789,2384.812 1034.099,2374.212 1034.099,2360.612C1034.099,2350.612 1030.859,2342.812 1024.379,2337.212C1017.899,2331.612 1009.349,2327.412 998.729,2324.612C988.109,2321.812 976.319,2319.312 963.359,2317.112C950.399,2314.912 937.439,2312.112 924.479,2308.712C911.519,2305.312 899.639,2300.512 888.839,2294.312C878.039,2288.112 869.399,2279.512 862.919,2268.512C856.439,2257.512 853.199,2242.812 853.199,2224.412C853.199,2205.212 858.059,2188.412 867.779,2174.012C877.499,2159.612 891.269,2148.512 909.089,2140.712C926.909,2132.912 948.059,2129.012 972.539,2129.012C991.259,2129.012 1010.249,2131.512 1029.509,2136.512C1048.769,2141.512 1064.519,2148.612 1076.759,2157.812L1054.619,2203.412C1041.659,2193.812 1028.159,2187.212 1014.119,2183.612C1000.079,2180.012 986.039,2178.212 971.999,2178.212C949.319,2178.212 932.399,2182.312 921.239,2190.512C910.079,2198.712 904.499,2209.212 904.499,2222.012C904.499,2232.812 907.829,2241.112 914.489,2246.912C921.149,2252.712 929.789,2257.212 940.409,2260.412C951.029,2263.612 962.819,2266.312 975.779,2268.512C988.739,2270.712 1001.699,2273.512 1014.659,2276.912C1027.619,2280.312 1039.409,2285.012 1050.029,2291.012C1060.649,2297.012 1069.289,2305.412 1075.949,2316.212C1082.609,2327.012 1085.939,2341.412 1085.939,2359.412C1085.939,2378.612 1080.899,2395.212 1070.819,2409.212C1060.739,2423.212 1046.519,2434.112 1028.159,2441.912C1009.799,2449.712 987.839,2453.612 962.279,2453.612Z" style="fill-rule:nonzero;"/>
            <path d="M1302.479,2453.612C1278.719,2453.612 1257.029,2447.512 1237.409,2435.312C1217.789,2423.112 1202.129,2405.012 1190.429,2381.012C1178.729,2357.012 1172.879,2327.012 1172.879,2291.012C1172.879,2255.012 1178.549,2225.012 1189.889,2201.012C1201.229,2177.012 1216.709,2159.012 1236.329,2147.012C1255.949,2135.012 1277.999,2129.012 1302.479,2129.012C1330.559,2129.012 1355.399,2135.812 1376.999,2149.412C1398.599,2163.012 1415.699,2181.912 1428.299,2206.112C1440.899,2230.312 1447.199,2258.612 1447.199,2291.012C1447.199,2323.412 1440.899,2351.812 1428.299,2376.212C1415.699,2400.612 1398.599,2419.612 1376.999,2433.212C1355.399,2446.812 1330.559,2453.612 1302.479,2453.612ZM1150.739,2566.412L1150.739,2132.012L1200.419,2132.012L1200.419,2217.812L1197.179,2291.612L1202.579,2365.412L1202.579,2566.412L1150.739,2566.412ZM1298.159,2403.212C1316.519,2403.212 1332.989,2398.612 1347.569,2389.412C1362.149,2380.212 1373.669,2367.112 1382.129,2350.112C1390.589,2333.112 1394.819,2313.412 1394.819,2291.012C1394.819,2268.212 1390.589,2248.512 1382.129,2231.912C1373.669,2215.312 1362.149,2202.412 1347.569,2193.212C1332.989,2184.012 1316.519,2179.412 1298.159,2179.412C1280.159,2179.412 1263.869,2184.012 1249.289,2193.212C1234.709,2202.412 1223.189,2215.312 1214.729,2231.912C1206.269,2248.512 1202.039,2268.212 1202.039,2291.012C1202.039,2313.412 1206.269,2333.112 1214.729,2350.112C1223.189,2367.112 1234.709,2380.212 1249.289,2389.412C1263.869,2398.612 1280.159,2403.212 1298.159,2403.212Z" style="fill-rule:nonzero;"/>
            <path d="M1526.579,2450.012L1526.579,2030.012L1570.859,2030.012L1820.879,2375.012L1797.659,2375.012L1797.659,2030.012L1851.659,2030.012L1851.659,2450.012L1807.379,2450.012L1557.359,2105.012L1580.579,2105.012L1580.579,2450.012L1526.579,2450.012Z" style="fill-rule:nonzero;"/>
            <path d="M2084.939,2453.612C2054.339,2453.612 2027.429,2446.612 2004.209,2432.612C1980.989,2418.612 1962.989,2399.412 1950.209,2375.012C1937.429,2350.612 1931.039,2322.612 1931.039,2291.012C1931.039,2259.412 1937.249,2231.412 1949.669,2207.012C1962.089,2182.612 1979.189,2163.512 2000.969,2149.712C2022.749,2135.912 2047.319,2129.012 2074.679,2129.012C2102.399,2129.012 2126.879,2135.812 2148.119,2149.412C2169.359,2163.012 2186.009,2182.112 2198.069,2206.712C2210.129,2231.312 2216.159,2260.012 2216.159,2292.812C2216.159,2295.212 2216.069,2298.012 2215.889,2301.212C2215.709,2304.412 2215.439,2307.412 2215.079,2310.212L1971.539,2310.212L1971.539,2268.812L2188.079,2268.812L2167.019,2283.212C2167.379,2262.812 2163.599,2244.612 2155.679,2228.612C2147.759,2212.612 2136.869,2200.112 2123.009,2191.112C2109.149,2182.112 2093.039,2177.612 2074.679,2177.612C2056.679,2177.612 2040.659,2182.112 2026.619,2191.112C2012.579,2200.112 2001.599,2212.712 1993.679,2228.912C1985.759,2245.112 1981.799,2263.612 1981.799,2284.412L1981.799,2294.012C1981.799,2315.212 1986.209,2334.112 1995.029,2350.712C2003.849,2367.312 2016.179,2380.212 2032.019,2389.412C2047.859,2398.612 2066.039,2403.212 2086.559,2403.212C2103.479,2403.212 2118.869,2400.012 2132.729,2393.612C2146.589,2387.212 2158.739,2377.612 2169.179,2364.812L2197.799,2402.012C2184.839,2418.812 2168.729,2431.612 2149.469,2440.412C2130.209,2449.212 2108.699,2453.612 2084.939,2453.612Z" style="fill-rule:nonzero;"/>
            <path d="M2386.259,2453.612C2357.459,2453.612 2335.139,2445.012 2319.299,2427.812C2303.459,2410.612 2295.539,2386.012 2295.539,2354.012L2295.539,2062.412L2347.379,2062.412L2347.379,2351.612C2347.379,2368.812 2351.249,2382.012 2358.989,2391.212C2366.729,2400.412 2377.799,2405.012 2392.199,2405.012C2408.399,2405.012 2421.899,2400.012 2432.699,2390.012L2448.899,2431.412C2440.979,2439.012 2431.529,2444.612 2420.549,2448.212C2409.569,2451.812 2398.139,2453.612 2386.259,2453.612ZM2246.939,2179.412L2246.939,2132.012L2429.459,2132.012L2429.459,2179.412L2246.939,2179.412Z" style="fill-rule:nonzero;"/>
            <path d="M2688.119,2454.812C2659.319,2454.812 2632.769,2449.512 2608.469,2438.912C2584.169,2428.312 2563.109,2413.312 2545.289,2393.912C2527.469,2374.512 2513.519,2351.812 2503.439,2325.812C2493.359,2299.812 2488.319,2271.212 2488.319,2240.012C2488.319,2208.812 2493.359,2180.212 2503.439,2154.212C2513.519,2128.212 2527.559,2105.512 2545.559,2086.112C2563.559,2066.712 2584.709,2051.712 2609.009,2041.112C2633.309,2030.512 2659.859,2025.212 2688.659,2025.212C2717.819,2025.212 2744.729,2030.712 2769.389,2041.712C2794.049,2052.712 2815.019,2069.012 2832.299,2090.612L2797.199,2128.412C2782.799,2111.612 2766.599,2099.112 2748.599,2090.912C2730.599,2082.712 2711.339,2078.612 2690.819,2078.612C2669.579,2078.612 2649.869,2082.612 2631.689,2090.612C2613.509,2098.612 2597.759,2109.812 2584.439,2124.212C2571.119,2138.612 2560.769,2155.712 2553.389,2175.512C2546.009,2195.312 2542.319,2216.812 2542.319,2240.012C2542.319,2263.212 2546.009,2284.712 2553.389,2304.512C2560.769,2324.312 2571.119,2341.412 2584.439,2355.812C2597.759,2370.212 2613.509,2381.412 2631.689,2389.412C2649.869,2397.412 2669.579,2401.412 2690.819,2401.412C2711.339,2401.412 2730.599,2397.312 2748.599,2389.112C2766.599,2380.912 2782.799,2368.212 2797.199,2351.012L2832.299,2388.812C2815.019,2410.412 2794.049,2426.812 2769.389,2438.012C2744.729,2449.212 2717.639,2454.812 2688.119,2454.812Z" style="fill-rule:nonzero;"/>
            <path d="M3005.939,2453.612C2977.139,2453.612 2951.579,2446.612 2929.259,2432.612C2906.939,2418.612 2889.299,2399.312 2876.339,2374.712C2863.379,2350.112 2856.899,2322.212 2856.899,2291.012C2856.899,2259.412 2863.379,2231.412 2876.339,2207.012C2889.299,2182.612 2906.939,2163.512 2929.259,2149.712C2951.579,2135.912 2977.139,2129.012 3005.939,2129.012C3034.379,2129.012 3059.849,2135.912 3082.349,2149.712C3104.849,2163.512 3122.489,2182.512 3135.269,2206.712C3148.049,2230.912 3154.439,2259.012 3154.439,2291.012C3154.439,2322.612 3148.049,2350.612 3135.269,2375.012C3122.489,2399.412 3104.849,2418.612 3082.349,2432.612C3059.849,2446.612 3034.379,2453.612 3005.939,2453.612ZM3005.939,2403.212C3024.299,2403.212 3040.769,2398.612 3055.349,2389.412C3069.929,2380.212 3081.359,2367.112 3089.639,2350.112C3097.919,2333.112 3102.059,2313.412 3102.059,2291.012C3102.059,2268.212 3097.919,2248.512 3089.639,2231.912C3081.359,2215.312 3069.929,2202.412 3055.349,2193.212C3040.769,2184.012 3024.299,2179.412 3005.939,2179.412C2987.579,2179.412 2971.199,2184.012 2956.799,2193.212C2942.399,2202.412 2930.879,2215.312 2922.239,2231.912C2913.599,2248.512 2909.279,2268.212 2909.279,2291.012C2909.279,2313.412 2913.599,2333.112 2922.239,2350.112C2930.879,2367.112 2942.399,2380.212 2956.799,2389.412C2971.199,2398.612 2987.579,2403.212 3005.939,2403.212Z" style="fill-rule:nonzero;"/>
            <path d="M3226.259,2450.012L3226.259,2132.012L3275.939,2132.012L3275.939,2217.812L3267.839,2195.012C3277.199,2174.212 3291.599,2158.012 3311.039,2146.412C3330.479,2134.812 3353.159,2129.012 3379.079,2129.012C3402.479,2129.012 3423.089,2134.012 3440.909,2144.012C3458.729,2154.012 3472.679,2169.212 3482.759,2189.612C3492.839,2210.012 3497.879,2235.812 3497.879,2267.012L3497.879,2450.012L3446.039,2450.012L3446.039,2273.612C3446.039,2242.812 3439.289,2219.612 3425.789,2204.012C3412.289,2188.412 3393.299,2180.612 3368.819,2180.612C3350.459,2180.612 3334.439,2184.612 3320.759,2192.612C3307.079,2200.612 3296.549,2212.412 3289.169,2228.012C3281.789,2243.612 3278.099,2263.012 3278.099,2286.212L3278.099,2450.012L3226.259,2450.012Z" style="fill-rule:nonzero;"/>
            <path d="M3663.059,2450.012L3537.779,2132.012L3591.779,2132.012L3703.019,2420.012L3677.099,2420.012L3790.499,2132.012L3841.259,2132.012L3715.979,2450.012L3663.059,2450.012Z" style="fill-rule:nonzero;"/>
            <path d="M4008.299,2453.612C3977.699,2453.612 3950.789,2446.612 3927.569,2432.612C3904.349,2418.612 3886.349,2399.412 3873.569,2375.012C3860.789,2350.612 3854.399,2322.612 3854.399,2291.012C3854.399,2259.412 3860.609,2231.412 3873.029,2207.012C3885.449,2182.612 3902.549,2163.512 3924.329,2149.712C3946.109,2135.912 3970.679,2129.012 3998.039,2129.012C4025.759,2129.012 4050.239,2135.812 4071.479,2149.412C4092.719,2163.012 4109.369,2182.112 4121.429,2206.712C4133.489,2231.312 4139.519,2260.012 4139.519,2292.812C4139.519,2295.212 4139.429,2298.012 4139.249,2301.212C4139.069,2304.412 4138.799,2307.412 4138.439,2310.212L3894.899,2310.212L3894.899,2268.812L4111.439,2268.812L4090.379,2283.212C4090.739,2262.812 4086.959,2244.612 4079.039,2228.612C4071.119,2212.612 4060.229,2200.112 4046.369,2191.112C4032.509,2182.112 4016.399,2177.612 3998.039,2177.612C3980.039,2177.612 3964.019,2182.112 3949.979,2191.112C3935.939,2200.112 3924.959,2212.712 3917.039,2228.912C3909.119,2245.112 3905.159,2263.612 3905.159,2284.412L3905.159,2294.012C3905.159,2315.212 3909.569,2334.112 3918.389,2350.712C3927.209,2367.312 3939.539,2380.212 3955.379,2389.412C3971.219,2398.612 3989.399,2403.212 4009.919,2403.212C4026.839,2403.212 4042.229,2400.012 4056.089,2393.612C4069.949,2387.212 4082.099,2377.612 4092.539,2364.812L4121.159,2402.012C4108.199,2418.812 4092.089,2431.612 4072.829,2440.412C4053.569,2449.212 4032.059,2453.612 4008.299,2453.612Z" style="fill-rule:nonzero;"/>
            <path d="M4211.339,2450.012L4211.339,2132.012L4261.019,2132.012L4261.019,2217.812L4252.919,2195.012C4262.279,2174.212 4276.679,2158.012 4296.119,2146.412C4315.559,2134.812 4338.239,2129.012 4364.159,2129.012C4387.559,2129.012 4408.169,2134.012 4425.989,2144.012C4443.809,2154.012 4457.759,2169.212 4467.839,2189.612C4477.919,2210.012 4482.959,2235.812 4482.959,2267.012L4482.959,2450.012L4431.119,2450.012L4431.119,2273.612C4431.119,2242.812 4424.369,2219.612 4410.869,2204.012C4397.369,2188.412 4378.379,2180.612 4353.899,2180.612C4335.539,2180.612 4319.519,2184.612 4305.839,2192.612C4292.159,2200.612 4281.629,2212.412 4274.249,2228.012C4266.869,2243.612 4263.179,2263.012 4263.179,2286.212L4263.179,2450.012L4211.339,2450.012Z" style="fill-rule:nonzero;"/>
            <path d="M4677.359,2453.612C4648.559,2453.612 4626.239,2445.012 4610.399,2427.812C4594.559,2410.612 4586.639,2386.012 4586.639,2354.012L4586.639,2062.412L4638.479,2062.412L4638.479,2351.612C4638.479,2368.812 4642.349,2382.012 4650.089,2391.212C4657.829,2400.412 4668.899,2405.012 4683.299,2405.012C4699.499,2405.012 4712.999,2400.012 4723.799,2390.012L4739.999,2431.412C4732.079,2439.012 4722.629,2444.612 4711.649,2448.212C4700.669,2451.812 4689.239,2453.612 4677.359,2453.612ZM4538.039,2179.412L4538.039,2132.012L4720.559,2132.012L4720.559,2179.412L4538.039,2179.412Z" style="fill-rule:nonzero;"/>
            <path d="M4802.639,2450.012L4802.639,2132.012L4854.479,2132.012L4854.479,2450.012L4802.639,2450.012ZM4828.559,2070.812C4818.479,2070.812 4810.109,2067.212 4803.449,2060.012C4796.789,2052.812 4793.459,2044.012 4793.459,2033.612C4793.459,2022.812 4796.789,2013.812 4803.449,2006.612C4810.109,1999.412 4818.479,1995.812 4828.559,1995.812C4838.639,1995.812 4847.009,1999.312 4853.669,2006.312C4860.329,2013.312 4863.659,2022.012 4863.659,2032.412C4863.659,2043.212 4860.419,2052.312 4853.939,2059.712C4847.459,2067.112 4838.999,2070.812 4828.559,2070.812Z" style="fill-rule:nonzero;"/>
            <path d="M5075.879,2453.612C5047.079,2453.612 5021.519,2446.612 4999.199,2432.612C4976.879,2418.612 4959.239,2399.312 4946.279,2374.712C4933.319,2350.112 4926.839,2322.212 4926.839,2291.012C4926.839,2259.412 4933.319,2231.412 4946.279,2207.012C4959.239,2182.612 4976.879,2163.512 4999.199,2149.712C5021.519,2135.912 5047.079,2129.012 5075.879,2129.012C5104.319,2129.012 5129.789,2135.912 5152.289,2149.712C5174.789,2163.512 5192.429,2182.512 5205.209,2206.712C5217.989,2230.912 5224.379,2259.012 5224.379,2291.012C5224.379,2322.612 5217.989,2350.612 5205.209,2375.012C5192.429,2399.412 5174.789,2418.612 5152.289,2432.612C5129.789,2446.612 5104.319,2453.612 5075.879,2453.612ZM5075.879,2403.212C5094.239,2403.212 5110.709,2398.612 5125.289,2389.412C5139.869,2380.212 5151.299,2367.112 5159.579,2350.112C5167.859,2333.112 5171.999,2313.412 5171.999,2291.012C5171.999,2268.212 5167.859,2248.512 5159.579,2231.912C5151.299,2215.312 5139.869,2202.412 5125.289,2193.212C5110.709,2184.012 5094.239,2179.412 5075.879,2179.412C5057.519,2179.412 5041.139,2184.012 5026.739,2193.212C5012.339,2202.412 5000.819,2215.312 4992.179,2231.912C4983.539,2248.512 4979.219,2268.212 4979.219,2291.012C4979.219,2313.412 4983.539,2333.112 4992.179,2350.112C5000.819,2367.112 5012.339,2380.212 5026.739,2389.412C5041.139,2398.612 5057.519,2403.212 5075.879,2403.212Z" style="fill-rule:nonzero;"/>
            <path d="M5296.199,2450.012L5296.199,2132.012L5345.879,2132.012L5345.879,2217.812L5337.779,2195.012C5347.139,2174.212 5361.539,2158.012 5380.979,2146.412C5400.419,2134.812 5423.099,2129.012 5449.019,2129.012C5472.419,2129.012 5493.029,2134.012 5510.849,2144.012C5528.669,2154.012 5542.619,2169.212 5552.699,2189.612C5562.779,2210.012 5567.819,2235.812 5567.819,2267.012L5567.819,2450.012L5515.979,2450.012L5515.979,2273.612C5515.979,2242.812 5509.229,2219.612 5495.729,2204.012C5482.229,2188.412 5463.239,2180.612 5438.759,2180.612C5420.399,2180.612 5404.379,2184.612 5390.699,2192.612C5377.019,2200.612 5366.489,2212.412 5359.109,2228.012C5351.729,2243.612 5348.039,2263.012 5348.039,2286.212L5348.039,2450.012L5296.199,2450.012Z" style="fill-rule:nonzero;"/>
            <path d="M5746.019,2453.612C5722.259,2453.612 5699.669,2450.012 5678.249,2442.812C5656.829,2435.612 5639.999,2426.812 5627.759,2416.412L5649.359,2370.812C5661.599,2380.012 5676.719,2387.812 5694.719,2394.212C5712.719,2400.612 5731.079,2403.812 5749.799,2403.812C5773.919,2403.812 5791.289,2400.012 5801.909,2392.412C5812.529,2384.812 5817.839,2374.212 5817.839,2360.612C5817.839,2350.612 5814.599,2342.812 5808.119,2337.212C5801.639,2331.612 5793.089,2327.412 5782.469,2324.612C5771.849,2321.812 5760.059,2319.312 5747.099,2317.112C5734.139,2314.912 5721.179,2312.112 5708.219,2308.712C5695.259,2305.312 5683.379,2300.512 5672.579,2294.312C5661.779,2288.112 5653.139,2279.512 5646.659,2268.512C5640.179,2257.512 5636.939,2242.812 5636.939,2224.412C5636.939,2205.212 5641.799,2188.412 5651.519,2174.012C5661.239,2159.612 5675.009,2148.512 5692.829,2140.712C5710.649,2132.912 5731.799,2129.012 5756.279,2129.012C5774.999,2129.012 5793.989,2131.512 5813.249,2136.512C5832.509,2141.512 5848.259,2148.612 5860.499,2157.812L5838.359,2203.412C5825.399,2193.812 5811.899,2187.212 5797.859,2183.612C5783.819,2180.012 5769.779,2178.212 5755.739,2178.212C5733.059,2178.212 5716.139,2182.312 5704.979,2190.512C5693.819,2198.712 5688.239,2209.212 5688.239,2222.012C5688.239,2232.812 5691.569,2241.112 5698.229,2246.912C5704.889,2252.712 5713.529,2257.212 5724.149,2260.412C5734.769,2263.612 5746.559,2266.312 5759.519,2268.512C5772.479,2270.712 5785.439,2273.512 5798.399,2276.912C5811.359,2280.312 5823.149,2285.012 5833.769,2291.012C5844.389,2297.012 5853.029,2305.412 5859.689,2316.212C5866.349,2327.012 5869.679,2341.412 5869.679,2359.412C5869.679,2378.612 5864.639,2395.212 5854.559,2409.212C5844.479,2423.212 5830.259,2434.112 5811.899,2441.912C5793.539,2449.712 5771.579,2453.612 5746.019,2453.612Z" style="fill-rule:nonzero;"/>
        </g>
    </g>
</svg>
