<svg xmlns="http://www.w3.org/2000/svg" xml:space="preserve" style="fill-rule:evenodd;clip-rule:evenodd;stroke-linejoin:round;stroke-miterlimit:2" viewBox="0 0 4086 2383"><path d="M784.045 1070.596c8.224 0 14.891 6.388 14.891 14.269v1203.629c0 7.881-6.667 14.27-14.891 14.27H626.38c-8.224 0-14.891-6.389-14.891-14.27V1084.865c0-7.881 6.667-14.269 14.891-14.269z" style="fill:#c45fce" transform="rotate(24.271 3851.178 3907.51)scale(1.0073 1.05118)"/><path d="M784.045 1070.596c8.224 0 14.891 6.388 14.891 14.269v1203.629c0 7.881-6.667 14.27-14.891 14.27H626.38c-8.224 0-14.891-6.389-14.891-14.27V1084.865c0-7.881 6.667-14.269 14.891-14.269z" style="fill:#b65fd9" transform="rotate(24.271 3314.061 4882.238)scale(1.0073 1.05118)"/><path d="M366.233 399.235a2.28 2.28 0 0 0 .658-1.604v-85.533a2.287 2.287 0 0 1 2.289-2.284l64.932.13a2.284 2.284 0 0 1 2.28 2.284v23.56a2.284 2.284 0 0 1-2.284 2.284H402.06a2.284 2.284 0 0 0-2.284 2.284v69.738a2.28 2.28 0 0 1-.74 1.682l-22.842 20.964a2.285 2.285 0 0 0-.047 3.321l22.936 22.277c.443.43.693 1.021.693 1.639v68.829a2.284 2.284 0 0 0 2.284 2.284h32.048a2.285 2.285 0 0 1 2.284 2.284v23.285a2.284 2.284 0 0 1-2.284 2.284h-64.933a2.285 2.285 0 0 1-2.284-2.284v-84.58c0-.59-.228-1.158-.637-1.583l-22.288-23.189a2.29 2.29 0 0 1-.638-1.583v-22.34c0-.6.237-1.177.658-1.604z" style="fill:#ef5ca8" transform="translate(-1345.53 -2034.69)scale(6.56766)"/><path d="M366.233 399.235a2.28 2.28 0 0 0 .658-1.604v-85.533a2.287 2.287 0 0 1 2.289-2.284l64.932.13a2.284 2.284 0 0 1 2.28 2.284v23.56a2.284 2.284 0 0 1-2.284 2.284H402.06a2.284 2.284 0 0 0-2.284 2.284v69.738a2.28 2.28 0 0 1-.74 1.682l-22.842 20.964a2.285 2.285 0 0 0-.047 3.321l22.936 22.277c.443.43.693 1.021.693 1.639v68.829a2.284 2.284 0 0 0 2.284 2.284h32.048a2.285 2.285 0 0 1 2.284 2.284v23.285a2.284 2.284 0 0 1-2.284 2.284h-64.933a2.285 2.285 0 0 1-2.284-2.284v-84.58c0-.59-.228-1.158-.637-1.583l-22.288-23.189a2.29 2.29 0 0 1-.638-1.583v-22.34c0-.6.237-1.177.658-1.604z" style="fill:#9e5dec" transform="matrix(-6.56766 0 0 6.56766 5431.53 -2034.721)"/><g style="stroke:none;stroke-width:0;stroke-linecap:round;stroke-linejoin:miter;stroke-dasharray:none;stroke-opacity:.5"><path d="M4819.76 1982.045q-15.014 0-24.935 10.725-9.923 10.726-9.923 26.815 0 15.494 9.923 26.218 9.92 10.725 24.936 10.725 15.552.001 25.207-11.021 9.652-11.026 9.652-27.116 0-15.493-9.92-25.92-9.922-10.428-24.94-10.426m-2125.232 29.196q-42.904 0-79.105 15.792-36.2 15.79-63.016 44.692-26.813 28.9-41.829 67.634-15.016 38.733-15.018 85.21 0 46.48 15.018 85.212 15.015 38.733 41.561 67.634 26.547 28.9 62.748 44.692 36.2 15.791 79.104 15.792 43.977-.001 80.714-16.687 36.736-16.684 62.48-48.862l-34.862-37.54q-21.452 25.622-48.266 37.837t-57.384 12.215q-31.642.002-58.725-11.916t-46.927-33.371q-19.843-21.451-30.836-50.948-10.994-29.496-10.993-64.057-.001-34.562 10.993-64.058t30.836-50.948q19.843-21.451 46.927-33.37 27.083-11.918 58.725-11.917 30.57 0 57.384 12.216 26.815 12.214 48.266 37.241l34.862-37.54q-25.744-32.178-62.48-48.565-36.737-16.388-80.177-16.388m-2064.99 4.768L459.532 2433.13h55.238l41.244-104.28H755.62l41.244 104.28h56.311l-170.543-417.122Zm910.875 0v417.122h53.63v-310.815l225.245 310.815h43.977v-417.122h-53.632v310.814l-225.245-310.814zm763.688 32.177v69.125h-48.266v47.074h48.266v173.403q0 47.67 23.597 73.295 23.598 25.622 66.503 25.622 17.698 0 34.054-5.361 16.358-5.365 28.157-16.687l-16.091-41.115q-16.09 14.897-40.223 14.897-21.451 0-32.981-13.706t-11.53-39.328v-171.02h81.518v-47.074h-81.518v-69.125zm2275.399 0v69.125h-48.269v47.074h48.269v173.403q0 47.67 23.597 73.295 23.597 25.622 66.5 25.622 17.698 0 34.055-5.361 16.357-5.365 28.157-16.687l-16.089-41.115q-16.09 14.897-40.223 14.897-21.45 0-32.981-13.706t-11.532-39.328v-171.02h81.518v-47.074h-81.518v-69.125zM655.818 2076.5l80.948 204.68H574.867Zm358.28 37.83q-36.468 0-63.014 11.62-26.547 11.62-41.027 33.071-14.48 21.453-14.48 50.056 0 27.41 9.653 43.797t25.743 25.624q16.089 9.237 35.395 14.302a447 447 0 0 0 38.614 8.342q19.306 3.276 35.127 7.447t25.475 12.515q9.653 8.342 9.652 23.239 0 20.26-15.82 31.582t-51.752 11.322q-27.888 0-54.702-9.533-26.816-9.535-45.05-23.242l-21.453 45.287q18.235 15.495 50.146 26.22 31.909 10.727 67.304 10.726 38.078 0 65.43-11.62 27.35-11.62 42.365-32.474 15.018-20.856 15.019-49.46-.001-26.815-9.923-42.904-9.923-16.088-25.743-25.026-15.821-8.94-35.128-14.005a447 447 0 0 0-38.613-8.342q-19.307-3.277-35.127-8.043-15.822-4.769-25.744-13.41-9.92-8.639-9.92-24.727 0-19.069 16.625-31.285 16.625-12.215 50.411-12.215 20.916 0 41.832 5.36 20.916 5.365 40.223 19.666l21.988-45.287q-18.234-13.706-46.927-21.153-28.692-7.45-56.58-7.45zm322.361 0q-36.468 0-65.695 17.878c-14.031 8.582-25.896 20.304-35.664 35.065v-49.962h-49.34v431.42h51.483v-163.606c9.684 13.888 21.185 25.067 34.594 33.405q29.227 18.175 64.622 18.175 41.831 0 74.01-20.259 32.178-20.26 50.95-56.61 18.77-36.349 18.77-84.615c0-48.266-6.257-60.285-18.77-84.319q-18.772-36.05-50.95-56.311-32.179-20.26-74.01-20.261m748.297 0q-40.759 0-73.205 20.557-32.445 20.56-50.947 56.91-18.504 36.349-18.505 83.424 0 47.074 19.038 83.423 19.04 36.35 53.632 57.207 34.59 20.855 80.175 20.854 35.396.001 64.089-13.108t48-38.136l-28.425-36.946q-15.553 19.068-36.2 28.6-20.648 9.536-45.855 9.537-30.569 0-54.166-13.706t-36.736-38.436c-6.462-12.161-10.523-25.574-12.218-40.222h230.761q.537-4.171.805-8.938t.268-8.342q0-48.863-17.966-85.51t-49.61-56.907q-31.64-20.26-72.935-20.261m924.877 0q-42.904 0-76.154 20.557-33.25 20.56-52.557 56.91t-19.307 83.424q0 46.478 19.307 83.124 19.306 36.649 52.557 57.506 33.25 20.855 76.154 20.854 42.367.001 75.886-20.854 33.519-20.857 52.557-57.207 19.039-36.348 19.039-83.423 0-47.672-19.039-83.723-19.037-36.052-52.557-56.61-33.518-20.559-75.886-20.558m370.584 0q-38.615.001-67.575 17.282c-14.41 8.6-26.026 19.747-34.86 33.436v-47.737h-49.338v315.82h51.484v-162.678q0-34.562 10.993-57.802 10.996-23.238 31.375-35.156t47.73-11.918q36.468 0 56.58 23.239 20.11 23.239 20.11 69.122v175.193h51.484v-181.745q0-46.48-15.015-76.872-15.017-30.39-41.564-45.287-26.546-14.897-61.404-14.897m614.718 0q-40.76 0-73.207 20.557-32.446 20.56-50.948 56.91t-18.502 83.424 19.039 83.423q19.038 36.35 53.629 57.207 34.591 20.855 80.177 20.854 35.396.001 64.089-13.108 28.691-13.11 47.997-38.136l-28.422-36.946q-15.555 19.068-36.203 28.6-20.647 9.536-45.852 9.537-30.57 0-54.165-13.706-23.597-13.706-36.737-38.436c-6.462-12.161-10.523-25.574-12.218-40.222h230.759q.535-4.171.804-8.938.268-4.767.268-8.342 0-48.863-17.965-85.51-17.966-36.647-49.607-56.907-31.642-20.26-72.936-20.261m363.608 0q-38.613.001-67.573 17.282c-14.41 8.6-26.025 19.747-34.858 33.436v-47.737h-49.342v315.82h51.487v-162.678q0-34.562 10.993-57.802 10.994-23.238 31.373-35.156t47.732-11.918q36.468 0 56.579 23.239t20.111 69.122v175.193h51.484v-181.745q0-46.48-15.016-76.872-15.016-30.39-41.563-45.287t-61.407-14.897m706.842 0q-42.903 0-76.154 20.557-33.25 20.56-52.557 56.91-19.306 36.349-19.307 83.424 0 46.478 19.307 83.124 19.306 36.649 52.557 57.506 33.25 20.855 76.154 20.854 42.367.001 75.887-20.854 33.519-20.857 52.559-57.207 19.038-36.348 19.038-83.423 0-47.672-19.038-83.723-19.04-36.052-52.56-56.61-33.517-20.559-75.886-20.558m370.584 0q-38.614.001-67.575 17.282c-14.41 8.6-26.026 19.747-34.859 33.436v-47.737h-49.338v315.82h51.484v-162.678q0-34.562 10.995-57.802 10.995-23.238 31.373-35.156t47.73-11.918q36.467 0 56.578 23.239t20.112 69.122v175.193h51.486v-181.745q0-46.48-15.018-76.872-15.015-30.39-41.561-45.287-26.547-14.897-61.407-14.897m305.154 0q-36.469 0-63.016 11.62t-41.027 33.071q-14.48 21.453-14.48 50.056.001 27.41 9.655 43.797t25.741 25.624q16.089 9.237 35.395 14.302a447 447 0 0 0 38.614 8.342q19.307 3.276 35.13 7.447 15.82 4.172 25.472 12.515 9.655 8.342 9.655 23.239-.001 20.26-15.823 31.582-15.82 11.321-51.752 11.322-27.888 0-54.702-9.533-26.816-9.535-45.05-23.242l-21.45 45.287q18.234 15.495 50.143 26.22 31.909 10.727 67.304 10.726 38.078 0 65.43-11.62 27.351-11.62 42.368-32.474 15.016-20.856 15.016-49.46-.001-26.815-9.923-42.904-9.921-16.088-25.74-25.026-15.822-8.94-35.128-14.005a447 447 0 0 0-38.614-8.342q-19.306-3.277-35.127-8.043-15.821-4.769-25.743-13.41-9.922-8.639-9.923-24.727.001-19.069 16.628-31.285 16.624-12.215 50.411-12.215 20.916 0 41.832 5.36 20.915 5.365 40.222 19.666l21.987-45.287q-18.234-13.706-46.925-21.153-28.692-7.45-56.58-7.45m-2203.296 2.98 124.423 315.82h52.557l124.42-315.82h-50.411l-99.629 253.021-97.73-253.02zm1256.193 0v315.82h51.484v-315.82zm-2709.264 45.288q27.35 0 47.997 13.407 20.648 13.406 32.448 37.242c5.965 12.05 9.55 25.363 10.787 39.926h-182.684c1.504-14.467 5.165-27.68 11.006-39.627q11.8-24.135 32.716-37.541 20.915-13.408 47.73-13.407m1910.179 0q27.35 0 47.997 13.407t32.445 37.242c5.965 12.05 9.554 25.363 10.79 39.926H3903.48c1.503-14.467 5.167-27.68 11.008-39.627q11.799-24.135 32.714-37.541 20.916-13.408 47.732-13.407zm-2662.767 1.787q27.352.001 49.073 13.706 21.72 13.705 34.323 38.433 12.602 24.73 12.602 58.697 0 33.369-12.602 58.694t-34.323 39.031c-21.72 13.706-30.839 13.706-49.073 13.706q-26.815 0-48.534-13.706-21.72-13.706-34.322-39.031t-12.603-58.694q0-33.966 12.603-58.697 12.602-24.728 34.322-38.433 21.72-13.706 48.534-13.706m1677.465 0q27.35.001 49.07 13.706 21.721 13.705 34.057 38.433 12.335 24.73 12.334 58.697.001 33.369-12.334 58.694-12.336 25.325-34.057 39.031c-21.721 13.706-30.836 13.706-49.07 13.706s-34.5-4.569-48.802-13.706q-21.453-13.706-34.325-39.031-12.87-25.325-12.87-58.694 0-33.966 12.87-58.697 12.872-24.728 34.325-38.433 21.451-13.706 48.802-13.706m2055.752 0q27.352.001 49.073 13.706 21.72 13.705 34.055 38.433 12.334 24.73 12.334 58.697 0 33.369-12.334 58.694-12.336 25.325-34.055 39.031c-21.719 13.706-30.839 13.706-49.073 13.706s-34.5-4.569-48.802-13.706q-21.452-13.706-34.322-39.031-12.872-25.325-12.873-58.694 0-33.966 12.873-58.697 12.87-24.728 34.322-38.433 21.452-13.706 48.802-13.706" style="fill:#0d1117;fill-rule:nonzero;stroke:none;stroke-width:0;stroke-linecap:round;stroke-linejoin:miter;stroke-dasharray:none;stroke-opacity:.5;paint-order:markers stroke fill;fill-opacity:1" transform="translate(-329.65 451.833)scale(.75221)"/></g></svg>