<svg xmlns="http://www.w3.org/2000/svg" xml:space="preserve" style="fill-rule:evenodd;clip-rule:evenodd;stroke-linejoin:round;stroke-miterlimit:2" viewBox="0 0 4086 2383"><path d="M784.045 1070.596c8.224 0 14.891 6.388 14.891 14.269v1203.629c0 7.881-6.667 14.27-14.891 14.27H626.38c-8.224 0-14.891-6.389-14.891-14.27V1084.865c0-7.881 6.667-14.269 14.891-14.269h157.665z" style="fill:#c45fce" transform="matrix(.91827 .41406 -.4321 .95826 1946.615 -1237.667)"/><path d="M784.045 1070.596c8.224 0 14.891 6.388 14.891 14.269v1203.629c0 7.881-6.667 14.27-14.891 14.27H626.38c-8.224 0-14.891-6.389-14.891-14.27V1084.865c0-7.881 6.667-14.269 14.891-14.269h157.665z" style="fill:#b65fd9" transform="matrix(.91827 .41406 -.4321 .95826 2299.808 -930.725)"/><path d="M366.233 399.235a2.28 2.28 0 0 0 .658-1.604v-85.533a2.287 2.287 0 0 1 2.289-2.284l64.932.13a2.284 2.284 0 0 1 2.28 2.284v23.56a2.284 2.284 0 0 1-2.284 2.284H402.06a2.284 2.284 0 0 0-2.284 2.284v69.738a2.28 2.28 0 0 1-.74 1.682l-22.842 20.964a2.285 2.285 0 0 0-.047 3.321l22.936 22.277c.443.43.693 1.021.693 1.639v68.829a2.284 2.284 0 0 0 2.284 2.284h32.048a2.285 2.285 0 0 1 2.284 2.284v23.285a2.284 2.284 0 0 1-2.284 2.284h-64.933a2.285 2.285 0 0 1-2.284-2.284v-84.58c0-.59-.228-1.158-.637-1.583l-22.288-23.189a2.286 2.286 0 0 1-.638-1.583v-22.34c0-.6.237-1.177.658-1.604l22.247-22.545z" style="fill:#ef5ca8" transform="matrix(6.56766 0 0 6.56766 -1345.53 -2034.69)"/><path d="M366.233 399.235a2.28 2.28 0 0 0 .658-1.604v-85.533a2.287 2.287 0 0 1 2.289-2.284l64.932.13a2.284 2.284 0 0 1 2.28 2.284v23.56a2.284 2.284 0 0 1-2.284 2.284H402.06a2.284 2.284 0 0 0-2.284 2.284v69.738a2.28 2.28 0 0 1-.74 1.682l-22.842 20.964a2.285 2.285 0 0 0-.047 3.321l22.936 22.277c.443.43.693 1.021.693 1.639v68.829a2.284 2.284 0 0 0 2.284 2.284h32.048a2.285 2.285 0 0 1 2.284 2.284v23.285a2.284 2.284 0 0 1-2.284 2.284h-64.933a2.285 2.285 0 0 1-2.284-2.284v-84.58c0-.59-.228-1.158-.637-1.583l-22.288-23.189a2.286 2.286 0 0 1-.638-1.583v-22.34c0-.6.237-1.177.658-1.604l22.247-22.545z" style="fill:#9e5dec" transform="matrix(-6.56766 0 0 6.56766 5431.53 -2034.721)"/><g style="stroke:#000;stroke-width:5.31764;stroke-linecap:round;stroke-linejoin:miter;stroke-dasharray:none;stroke-opacity:.5"><path d="M4819.76 1982.045c-10.01 0-18.321 3.574-24.935 10.725-6.615 7.15-9.923 16.09-9.923 26.815 0 10.33 3.308 19.068 9.923 26.218 6.614 7.15 14.925 10.725 24.936 10.725 10.368 0 18.771-3.672 25.207-11.021 6.435-7.35 9.652-16.39 9.652-27.116 0-10.328-3.306-18.969-9.92-25.92-6.615-6.953-14.928-10.426-24.94-10.426zm-2125.232 29.196c-28.603 0-54.971 5.264-79.105 15.792-24.133 10.527-45.14 25.424-63.016 44.692-17.876 19.266-31.818 41.812-41.829 67.634-10.01 25.822-15.018 54.225-15.018 85.21 0 30.987 5.007 59.39 15.018 85.212 10.01 25.821 23.863 48.367 41.561 67.634 17.698 19.267 38.614 34.164 62.748 44.692 24.133 10.527 50.502 15.792 79.104 15.792 29.318 0 56.223-5.564 80.714-16.687 24.49-11.123 45.318-27.41 62.48-48.862l-34.862-37.54c-14.301 17.082-30.39 29.693-48.266 37.837-17.876 8.144-37.004 12.215-57.384 12.215-21.094 0-40.67-3.97-58.725-11.916-18.055-7.945-33.699-19.07-46.927-33.371-13.229-14.301-23.507-31.283-30.836-50.948-7.33-19.664-10.993-41.016-10.993-64.057 0-23.041 3.663-44.394 10.993-64.058 7.33-19.664 17.607-36.646 30.836-50.948 13.228-14.3 28.872-25.425 46.927-33.37 18.056-7.946 37.63-11.917 58.725-11.917 20.38 0 39.508 4.072 57.384 12.216 17.877 8.143 33.965 20.556 48.266 37.241l34.862-37.54c-17.162-21.453-37.99-37.64-62.48-48.565-24.491-10.925-51.217-16.388-80.177-16.388zm-2064.99 4.768L459.532 2433.13h55.238l41.244-104.28H755.62l41.244 104.28h56.311l-170.543-417.122Zm910.875 0v417.122h53.63v-310.815l225.245 310.815h43.977v-417.122h-53.632v310.814l-225.245-310.814zm763.688 32.177v69.125h-48.266v47.074h48.266v173.403c0 31.78 7.866 56.212 23.597 73.295 15.732 17.082 37.9 25.622 66.503 25.622 11.798 0 23.15-1.786 34.054-5.361 10.905-3.576 20.291-9.14 28.157-16.687l-16.091-41.115c-10.726 9.931-24.134 14.897-40.223 14.897-14.301 0-25.294-4.569-32.981-13.706-7.687-9.137-11.53-22.246-11.53-39.328v-171.02h81.518v-47.074h-81.518v-69.125zm2275.399 0v69.125h-48.269v47.074h48.269v173.403c0 31.78 7.866 56.212 23.597 73.295 15.732 17.082 37.898 25.622 66.5 25.622 11.799 0 23.15-1.786 34.055-5.361 10.904-3.576 20.291-9.14 28.157-16.687l-16.089-41.115c-10.726 9.931-24.134 14.897-40.223 14.897-14.3 0-25.294-4.569-32.981-13.706-7.687-9.137-11.532-22.246-11.532-39.328v-171.02h81.518v-47.074h-81.518v-69.125zM655.818 2076.5l80.948 204.68H574.867Zm358.28 37.83c-24.313 0-45.316 3.873-63.014 11.62-17.698 7.746-31.374 18.77-41.027 33.071-9.653 14.302-14.48 30.987-14.48 50.056 0 18.274 3.217 32.872 9.653 43.797 6.435 10.924 15.017 19.467 25.743 25.624 10.726 6.158 22.524 10.925 35.395 14.302a446.802 446.802 0 0 0 38.614 8.342c12.871 2.185 24.58 4.666 35.127 7.447 10.547 2.781 19.04 6.953 25.475 12.515 6.436 5.561 9.652 13.308 9.652 23.239 0 13.507-5.273 24.034-15.82 31.582-10.547 7.547-27.798 11.322-51.752 11.322-18.592 0-36.826-3.177-54.702-9.533-17.877-6.356-32.894-14.105-45.05-23.242l-21.453 45.287c12.156 10.33 28.873 19.07 50.146 26.22 21.273 7.152 43.707 10.726 67.304 10.726 25.385 0 47.195-3.873 65.43-11.62 18.234-7.747 32.354-18.57 42.365-32.474 10.011-13.904 15.019-30.39 15.019-49.46 0-17.876-3.309-32.178-9.923-42.904-6.615-10.726-15.196-19.067-25.743-25.026-10.548-5.96-22.256-10.629-35.128-14.005a446.77 446.77 0 0 0-38.613-8.342c-12.871-2.185-24.58-4.865-35.127-8.043-10.548-3.178-19.13-7.65-25.744-13.41-6.614-5.76-9.92-14.001-9.92-24.727 0-12.712 5.541-23.141 16.625-31.285 11.084-8.144 27.887-12.215 50.411-12.215 13.944 0 27.888 1.786 41.832 5.36 13.944 3.576 27.352 10.132 40.223 19.666l21.988-45.287c-12.156-9.137-27.799-16.188-46.927-21.153-19.128-4.966-37.988-7.45-56.58-7.45zm322.361 0c-24.312 0-46.21 5.96-65.695 17.878-14.031 8.582-25.896 20.304-35.664 35.065v-49.962h-49.34v431.42h51.483v-163.606c9.684 13.888 21.185 25.067 34.594 33.405 19.485 12.116 41.025 18.175 64.622 18.175 27.888 0 52.557-6.752 74.01-20.259 21.451-13.506 38.436-32.377 50.95-56.61 12.513-24.233 18.77-52.437 18.77-84.615s-6.257-60.285-18.77-84.319c-12.514-24.034-29.499-42.804-50.95-56.311-21.453-13.507-46.122-20.261-74.01-20.261zm748.297 0c-27.173 0-51.574 6.852-73.205 20.557-21.63 13.706-38.612 32.677-50.947 56.91-12.335 24.233-18.505 52.04-18.505 83.424 0 31.383 6.346 59.19 19.038 83.423 12.693 24.233 30.572 43.303 53.632 57.207 23.061 13.904 49.785 20.854 80.175 20.854 23.597 0 44.96-4.368 64.089-13.108 19.128-8.74 35.129-21.452 48-38.136l-28.425-36.946c-10.369 12.713-22.435 22.245-36.2 28.6-13.765 6.357-29.05 9.537-45.855 9.537-20.38 0-38.434-4.569-54.166-13.706-15.731-9.137-27.976-21.95-36.736-38.436-6.462-12.161-10.523-25.574-12.218-40.222h230.761c.358-2.781.626-5.76.805-8.938.178-3.178.268-5.959.268-8.342 0-32.575-5.989-61.079-17.966-85.51-11.977-24.432-28.515-43.4-49.61-56.907-21.094-13.507-45.405-20.261-72.935-20.261zm924.877 0c-28.603 0-53.987 6.852-76.154 20.557-22.167 13.706-39.686 32.677-52.557 56.91-12.871 24.233-19.307 52.04-19.307 83.424 0 30.986 6.436 58.693 19.307 83.124 12.871 24.432 30.39 43.602 52.557 57.506 22.167 13.904 47.551 20.854 76.154 20.854 28.245 0 53.54-6.95 75.886-20.854 22.346-13.904 39.865-32.974 52.557-57.207 12.692-24.232 19.039-52.04 19.039-83.423 0-31.78-6.347-59.69-19.039-83.723-12.692-24.034-30.21-42.905-52.557-56.61-22.346-13.706-47.64-20.558-75.886-20.558zm370.584 0c-25.743 0-48.269 5.762-67.575 17.282-14.41 8.6-26.026 19.747-34.86 33.436v-47.737h-49.338v315.82h51.484v-162.678c0-23.041 3.664-42.309 10.993-57.802 7.33-15.493 17.79-27.21 31.375-35.156 13.587-7.945 29.495-11.918 47.73-11.918 24.312 0 43.172 7.746 56.58 23.239 13.407 15.493 20.11 38.533 20.11 69.122v175.193h51.484v-181.745c0-30.986-5.004-56.611-15.015-76.872-10.011-20.26-23.866-35.356-41.564-45.287-17.698-9.931-38.165-14.897-61.404-14.897zm614.718 0c-27.173 0-51.577 6.852-73.207 20.557-21.631 13.706-38.613 32.677-50.948 56.91-12.335 24.233-18.502 52.04-18.502 83.424 0 31.383 6.346 59.19 19.039 83.423 12.692 24.233 30.568 43.303 53.629 57.207 23.06 13.904 49.787 20.854 80.177 20.854 23.597 0 44.96-4.368 64.089-13.108 19.128-8.74 35.126-21.452 47.997-38.136l-28.422-36.946c-10.369 12.713-22.438 22.245-36.203 28.6-13.765 6.357-29.048 9.537-45.852 9.537-20.38 0-38.434-4.569-54.165-13.706-15.732-9.137-27.977-21.95-36.737-38.436-6.462-12.161-10.523-25.574-12.218-40.222h230.759c.357-2.781.625-5.76.804-8.938.179-3.178.268-5.959.268-8.342 0-32.575-5.988-61.079-17.965-85.51-11.978-24.432-28.513-43.4-49.607-56.907-21.095-13.507-45.406-20.261-72.936-20.261zm363.608 0c-25.742 0-48.266 5.762-67.573 17.282-14.41 8.6-26.025 19.747-34.858 33.436v-47.737h-49.342v315.82h51.487v-162.678c0-23.041 3.664-42.309 10.993-57.802 7.33-15.493 17.786-27.21 31.373-35.156 13.586-7.945 29.497-11.918 47.732-11.918 24.312 0 43.172 7.746 56.579 23.239 13.407 15.493 20.111 38.533 20.111 69.122v175.193h51.484v-181.745c0-30.986-5.005-56.611-15.016-76.872-10.01-20.26-23.865-35.356-41.563-45.287-17.698-9.931-38.167-14.897-61.407-14.897zm706.842 0c-28.602 0-53.987 6.852-76.154 20.557-22.167 13.706-39.686 32.677-52.557 56.91-12.87 24.233-19.307 52.04-19.307 83.424 0 30.986 6.436 58.693 19.307 83.124 12.871 24.432 30.39 43.602 52.557 57.506 22.167 13.904 47.552 20.854 76.154 20.854 28.245 0 53.54-6.95 75.887-20.854 22.345-13.904 39.866-32.974 52.559-57.207 12.692-24.232 19.038-52.04 19.038-83.423 0-31.78-6.346-59.69-19.038-83.723-12.693-24.034-30.214-42.905-52.56-56.61-22.345-13.706-47.64-20.558-75.886-20.558zm370.584 0c-25.742 0-48.268 5.762-67.575 17.282-14.41 8.6-26.026 19.747-34.859 33.436v-47.737h-49.338v315.82h51.484v-162.678c0-23.041 3.666-42.309 10.995-57.802 7.33-15.493 17.787-27.21 31.373-35.156 13.586-7.945 29.495-11.918 47.73-11.918 24.311 0 43.171 7.746 56.578 23.239 13.408 15.493 20.112 38.533 20.112 69.122v175.193h51.486v-181.745c0-30.986-5.007-56.611-15.018-76.872-10.011-20.26-23.863-35.356-41.561-45.287-17.698-9.931-38.167-14.897-61.407-14.897zm305.154 0c-24.312 0-45.318 3.873-63.016 11.62-17.698 7.746-31.374 18.77-41.027 33.071-9.653 14.302-14.48 30.987-14.48 50.056 0 18.274 3.22 32.872 9.655 43.797 6.436 10.924 15.015 19.467 25.741 25.624 10.726 6.158 22.524 10.925 35.395 14.302a446.801 446.801 0 0 0 38.614 8.342c12.871 2.185 24.582 4.666 35.13 7.447 10.547 2.781 19.037 6.953 25.472 12.515 6.436 5.561 9.655 13.308 9.655 23.239 0 13.507-5.276 24.034-15.823 31.582-10.547 7.547-27.797 11.322-51.752 11.322-18.592 0-36.826-3.177-54.702-9.533-17.877-6.356-32.894-14.105-45.05-23.242l-21.45 45.287c12.156 10.33 28.87 19.07 50.143 26.22 21.273 7.152 43.707 10.726 67.304 10.726 25.385 0 47.196-3.873 65.43-11.62 18.234-7.747 32.357-18.57 42.368-32.474 10.011-13.904 15.016-30.39 15.016-49.46 0-17.876-3.309-32.178-9.923-42.904-6.614-10.726-15.194-19.067-25.74-25.026-10.548-5.96-22.257-10.629-35.128-14.005a446.761 446.761 0 0 0-38.614-8.342c-12.87-2.185-24.58-4.865-35.127-8.043-10.547-3.178-19.129-7.65-25.743-13.41-6.614-5.76-9.923-14.001-9.923-24.727 0-12.712 5.544-23.141 16.628-31.285 11.083-8.144 27.886-12.215 50.411-12.215 13.944 0 27.888 1.786 41.832 5.36 13.943 3.576 27.351 10.132 40.222 19.666l21.987-45.287c-12.157-9.137-27.797-16.188-46.925-21.153-19.128-4.966-37.988-7.45-56.58-7.45zm-2203.296 2.98 124.423 315.82h52.557l124.42-315.82h-50.411l-99.629 253.021-97.73-253.02zm1256.193 0v315.82h51.484v-315.82zm-2709.264 45.288c18.234 0 34.232 4.468 47.997 13.407 13.765 8.938 24.582 21.351 32.448 37.242 5.965 12.05 9.55 25.363 10.787 39.926h-182.684c1.504-14.467 5.165-27.68 11.006-39.627 7.866-16.09 18.773-28.603 32.716-37.541 13.944-8.939 29.853-13.407 47.73-13.407zm1910.179 0c18.234 0 34.232 4.468 47.997 13.407 13.765 8.938 24.58 21.351 32.445 37.242 5.965 12.05 9.554 25.363 10.79 39.926H3903.48c1.503-14.467 5.167-27.68 11.008-39.627 7.866-16.09 18.77-28.603 32.714-37.541 13.943-8.939 29.855-13.407 47.732-13.407zm-2662.767 1.787c18.234 0 34.593 4.57 49.073 13.706 14.48 9.137 25.92 21.947 34.323 38.433 8.402 16.486 12.602 36.053 12.602 58.697 0 22.246-4.2 41.81-12.602 58.694-8.402 16.883-19.843 29.894-34.323 39.031s-30.839 13.706-49.073 13.706c-17.877 0-34.054-4.569-48.534-13.706-14.48-9.137-25.92-22.148-34.322-39.031-8.402-16.884-12.603-36.448-12.603-58.694 0-22.644 4.2-42.21 12.603-58.697 8.402-16.486 19.842-29.296 34.322-38.433 14.48-9.137 30.657-13.706 48.534-13.706zm1677.465 0c18.234 0 34.59 4.57 49.07 13.706 14.48 9.137 25.834 21.947 34.057 38.433 8.224 16.486 12.334 36.053 12.334 58.697 0 22.246-4.11 41.81-12.334 58.694-8.223 16.883-19.577 29.894-34.057 39.031s-30.836 13.706-49.07 13.706-34.5-4.569-48.802-13.706c-14.301-9.137-25.745-22.148-34.325-39.031-8.581-16.884-12.87-36.448-12.87-58.694 0-22.644 4.289-42.21 12.87-58.697 8.58-16.486 20.024-29.296 34.325-38.433 14.301-9.137 30.568-13.706 48.802-13.706zm2055.752 0c18.234 0 34.593 4.57 49.073 13.706 14.48 9.137 25.831 21.947 34.055 38.433 8.223 16.486 12.334 36.053 12.334 58.697 0 22.246-4.111 41.81-12.334 58.694-8.224 16.883-19.575 29.894-34.055 39.031s-30.839 13.706-49.073 13.706-34.5-4.569-48.802-13.706c-14.301-9.137-25.742-22.148-34.322-39.031-8.581-16.884-12.873-36.448-12.873-58.694 0-22.644 4.292-42.21 12.873-58.697 8.58-16.486 20.021-29.296 34.322-38.433 14.302-9.137 30.568-13.706 48.802-13.706z" style="fill:#fff;fill-rule:nonzero;stroke:#000;stroke-width:19.8045;stroke-linecap:round;stroke-linejoin:miter;stroke-dasharray:none;stroke-opacity:.5;paint-order:markers stroke fill" transform="matrix(.75221 0 0 .75221 -329.65 451.833)"/></g></svg>